<svg width="640pt" height="640pt" viewBox="0 0 640 640" version="1.1" xmlns="http://www.w3.org/2000/svg">
<g id="#000000ff">
<path fill="#000000" opacity="1.00" d=" M 177.44 21.64 C 192.13 14.09 208.14 7.07 225.05 8.62 C 235.72 9.92 246.48 10.96 256.93 13.59 C 262.97 14.88 269.03 16.63 274.35 19.86 C 281.63 25.37 289.67 30.11 295.25 37.53 C 296.44 37.56 297.63 37.60 298.83 37.63 C 303.90 30.24 311.75 25.53 319.47 21.34 C 322.93 19.42 326.91 18.84 330.55 17.36 C 339.14 14.20 348.66 13.44 357.59 15.58 C 363.38 16.85 369.38 17.20 375.05 19.00 C 378.41 20.46 381.36 22.75 384.76 24.15 C 402.41 32.97 417.62 47.09 426.50 64.83 C 427.45 66.74 427.79 68.87 428.07 70.96 C 430.32 74.92 431.44 79.31 431.80 83.83 C 433.35 90.08 432.64 96.68 430.40 102.67 C 425.70 115.15 420.11 127.91 410.13 137.11 C 403.74 142.92 397.06 148.88 388.72 151.68 C 381.29 154.08 373.85 156.74 366.05 157.64 C 361.01 158.23 356.08 156.72 351.13 156.11 C 351.31 165.43 350.35 174.71 350.19 184.02 C 350.42 195.74 349.07 207.41 349.33 219.13 C 348.20 231.38 348.88 243.70 347.90 255.94 C 346.68 262.36 346.72 268.91 345.56 275.33 C 351.31 275.04 357.04 275.76 362.66 276.96 C 368.38 267.47 380.81 263.71 391.31 265.35 C 398.42 253.51 402.99 240.37 406.61 227.11 C 402.60 223.43 399.22 218.66 399.21 213.00 C 398.79 205.62 400.12 196.22 407.35 192.40 C 412.19 189.93 417.43 187.34 423.04 188.25 C 432.12 189.64 439.44 196.64 443.26 204.72 C 443.98 209.75 444.39 215.32 441.73 219.90 C 439.89 224.16 435.73 226.59 432.13 229.20 C 428.34 232.01 423.49 232.24 418.97 232.68 C 415.81 238.51 413.91 244.93 410.36 250.56 C 408.01 256.88 405.31 263.24 404.77 270.06 C 405.16 272.57 406.71 274.70 408.31 276.61 C 413.48 282.85 417.17 290.32 418.45 298.36 C 423.63 301.53 429.18 304.23 433.70 308.37 C 437.60 311.44 441.22 314.86 445.14 317.89 C 448.31 318.67 451.72 317.90 454.98 318.31 C 462.37 318.59 468.52 323.48 473.18 328.83 C 476.71 332.93 480.94 336.46 483.96 341.00 C 488.51 347.64 491.55 355.14 494.82 362.45 C 497.24 367.74 497.93 373.57 499.55 379.12 C 501.29 387.29 501.67 396.74 497.02 404.04 C 493.73 407.85 491.21 412.76 486.33 414.78 C 484.75 429.53 479.93 443.76 474.43 457.48 C 471.97 464.16 468.09 470.22 464.07 476.07 C 455.24 486.83 446.33 497.58 436.32 507.28 C 430.46 512.26 423.78 516.16 417.24 520.16 C 414.77 521.51 412.42 523.31 409.58 523.77 C 408.41 523.89 407.10 524.29 406.66 525.51 L 406.33 526.10 C 403.20 527.62 400.27 529.52 397.14 531.04 C 394.13 532.16 390.95 532.72 387.86 533.57 C 387.43 535.02 386.97 536.47 386.54 537.93 C 386.16 539.24 385.81 540.57 385.62 541.94 C 386.97 542.87 388.46 543.59 389.94 544.33 C 393.89 546.08 397.33 548.71 401.11 550.73 C 403.67 549.15 405.96 546.79 409.15 546.62 C 418.39 545.54 428.73 545.91 436.52 551.60 C 440.13 553.90 444.08 555.84 447.02 559.04 C 452.54 565.24 457.81 572.35 458.49 580.93 C 458.94 587.06 457.95 594.52 452.49 598.31 C 450.32 599.34 447.86 599.56 445.55 600.12 C 445.60 600.80 445.69 602.15 445.73 602.83 C 444.89 603.21 444.05 603.60 443.21 604.00 C 442.33 598.68 438.40 594.76 435.76 590.27 C 431.78 585.55 428.08 580.51 423.23 576.62 C 417.97 572.49 413.58 567.32 407.88 563.77 C 401.90 559.87 396.03 555.82 389.99 552.03 C 387.30 550.49 384.46 549.20 382.04 547.26 C 380.32 550.67 377.44 553.21 375.01 556.09 C 370.19 560.20 365.41 564.70 359.23 566.64 C 351.65 570.49 343.01 570.57 334.82 572.08 C 325.34 572.67 316.04 569.39 307.77 565.01 C 303.29 562.80 300.05 558.88 297.01 555.05 C 292.89 558.96 288.50 562.60 284.12 566.21 C 282.41 568.21 280.74 570.25 279.02 572.25 C 283.33 575.20 288.16 578.42 289.77 583.70 C 292.42 589.97 294.86 596.35 295.21 603.24 C 293.59 608.26 293.41 613.87 290.39 618.36 C 287.18 623.21 283.22 627.57 278.58 631.09 C 274.71 634.07 269.73 634.95 264.99 635.41 C 261.66 635.72 258.28 636.75 254.95 635.95 C 247.61 633.09 240.78 628.39 236.67 621.53 C 228.70 611.25 228.81 596.87 233.12 585.11 C 235.03 581.20 238.85 578.84 241.89 575.91 C 250.61 567.17 264.44 565.08 275.89 569.00 C 280.65 562.16 286.66 556.26 293.48 551.50 C 295.05 550.80 294.64 549.09 294.81 547.72 C 284.75 548.53 274.91 546.01 264.92 545.52 C 255.25 544.03 246.37 539.70 237.18 536.57 C 223.57 530.93 211.82 521.80 200.54 512.50 C 197.59 510.14 195.78 506.78 193.88 503.60 C 177.97 503.55 161.53 497.60 151.30 485.01 C 147.75 480.10 144.66 474.89 141.09 470.00 C 136.72 462.25 134.38 453.49 132.99 444.75 C 131.92 432.48 135.81 420.22 141.74 409.60 C 145.18 403.18 151.65 399.50 157.29 395.30 C 160.56 392.82 164.21 390.90 167.50 388.45 C 169.56 386.92 169.97 384.20 170.90 381.96 C 172.91 375.44 176.66 369.67 180.12 363.85 C 178.67 359.74 177.13 355.48 177.45 351.04 C 177.91 345.31 179.47 339.75 180.58 334.13 C 171.91 328.21 166.60 317.57 156.06 314.40 C 148.24 317.60 139.48 318.93 131.16 317.12 C 126.19 314.61 121.48 310.75 119.32 305.48 C 115.62 297.74 117.01 288.36 121.12 281.06 C 123.82 276.66 127.33 272.25 132.36 270.47 C 139.25 269.54 146.65 269.94 152.71 273.70 C 153.54 274.71 154.72 275.38 156.05 275.43 C 157.92 275.72 159.10 277.39 160.33 278.68 C 163.95 282.98 167.59 288.05 167.33 293.96 C 167.65 297.97 166.05 301.72 164.50 305.31 C 172.47 311.58 179.85 318.64 188.04 324.60 C 196.35 322.43 205.50 320.37 213.88 323.60 C 218.24 317.33 224.05 312.40 230.06 307.77 C 228.45 300.57 224.50 294.23 221.72 287.46 C 217.46 277.70 211.52 268.84 206.62 259.42 C 201.91 251.33 196.13 243.95 190.27 236.66 C 186.80 231.28 182.06 226.94 177.91 222.10 C 176.43 220.62 175.09 218.77 173.03 218.08 C 167.85 219.57 163.34 222.86 158.04 224.04 C 145.37 227.32 131.78 227.79 119.18 224.01 C 107.14 219.36 94.24 214.29 86.26 203.58 C 78.23 192.63 74.59 179.21 72.24 166.02 C 71.11 160.70 72.27 155.32 72.39 149.97 C 72.76 137.90 78.63 126.90 84.94 116.93 C 90.64 110.08 95.20 102.11 102.51 96.76 C 112.82 88.19 125.58 80.04 139.62 82.36 C 139.96 75.49 138.60 68.34 141.46 61.81 C 144.42 54.75 148.27 48.01 152.85 41.87 C 159.96 33.96 168.13 26.87 177.44 21.64 M 185.06 26.07 C 176.65 30.17 169.63 36.47 162.90 42.85 C 157.04 49.37 152.35 56.86 148.91 64.91 C 148.19 68.21 147.08 71.43 147.05 74.85 C 146.26 77.95 145.56 81.17 144.10 84.01 C 140.53 88.70 134.13 87.57 129.14 89.32 C 123.48 91.23 117.57 93.15 112.90 97.02 C 106.02 101.91 99.33 107.51 94.83 114.76 C 91.64 119.58 87.78 123.92 84.81 128.88 C 83.02 133.28 80.73 137.46 78.90 141.85 C 76.69 152.08 75.96 162.75 77.83 173.09 C 78.25 174.02 78.68 174.94 79.12 175.87 C 79.82 178.55 80.46 181.26 81.24 183.93 C 84.85 192.75 89.11 202.14 97.69 207.20 C 104.77 211.11 112.07 214.95 119.92 217.06 C 122.64 217.62 125.35 218.30 128.13 218.59 C 137.94 218.75 147.78 217.99 157.45 216.31 C 163.33 213.14 169.70 210.98 175.27 207.22 C 175.32 209.51 175.40 211.80 175.47 214.09 C 176.35 214.70 177.23 215.30 178.12 215.91 C 182.71 220.53 187.34 225.12 191.35 230.27 L 191.39 230.43 C 196.12 236.28 200.84 242.13 205.26 248.23 C 212.07 259.40 218.90 270.61 224.78 282.32 C 227.45 287.48 229.28 293.02 232.05 298.12 L 232.19 298.19 C 233.62 300.73 233.67 304.91 236.96 305.88 C 242.65 308.24 248.94 308.26 254.99 308.85 C 260.23 309.64 265.46 308.55 270.71 308.59 C 279.77 308.53 288.74 306.33 296.99 302.64 C 308.31 297.53 319.08 291.17 329.76 284.81 C 333.69 281.96 338.81 279.77 341.08 275.30 C 342.27 261.39 344.50 247.51 344.11 233.50 C 345.07 226.73 344.69 219.87 345.24 213.07 C 345.13 205.03 346.02 197.02 345.86 188.98 C 346.63 181.68 346.00 174.33 346.72 167.02 C 347.28 160.45 345.96 153.85 346.91 147.31 C 352.34 147.59 357.54 149.62 363.01 149.44 C 370.02 149.85 376.72 147.49 383.31 145.43 C 387.48 144.09 392.11 143.31 395.36 140.11 C 396.36 139.53 397.27 138.81 398.21 138.13 C 403.74 134.78 407.46 129.44 412.18 125.18 C 416.80 119.48 420.11 112.83 423.19 106.20 C 425.16 101.11 426.93 95.89 427.67 90.46 C 428.23 86.57 427.14 82.72 426.27 78.97 C 424.07 73.41 422.88 67.38 419.43 62.39 C 416.19 57.76 413.19 52.87 409.10 48.92 C 397.80 37.64 383.94 28.21 368.12 24.87 C 361.15 23.50 354.21 21.10 347.01 21.84 C 339.35 22.51 331.97 24.92 324.92 27.89 C 321.13 30.15 317.44 32.58 313.58 34.74 C 310.34 37.50 307.41 40.66 303.91 43.09 C 299.11 44.36 293.64 42.49 290.52 38.57 C 287.42 34.58 282.80 32.36 278.77 29.50 C 275.07 26.91 271.08 24.79 266.87 23.16 C 262.98 21.76 258.85 21.26 254.87 20.20 C 246.02 17.84 236.84 17.40 227.92 15.50 C 212.90 14.27 198.38 19.70 185.06 26.07 M 412.46 194.79 C 410.91 195.89 410.02 197.66 408.95 199.19 C 408.26 199.71 407.56 200.24 406.87 200.77 C 404.77 203.81 403.16 207.25 403.45 211.05 C 403.59 212.36 403.72 213.66 403.83 214.98 C 405.54 218.08 407.38 221.21 410.38 223.26 C 410.52 227.07 409.41 230.71 408.25 234.28 C 404.07 243.95 400.80 254.00 396.30 263.54 C 395.05 265.81 395.28 268.45 395.13 270.94 C 392.07 270.16 389.16 268.00 385.89 268.83 C 379.88 269.85 373.65 271.65 369.08 275.89 C 369.53 276.99 370.00 278.10 370.47 279.20 C 374.94 280.03 379.13 281.84 383.41 283.33 C 393.63 286.43 403.54 290.57 412.98 295.57 C 412.48 288.35 408.04 282.35 404.33 276.43 C 403.90 276.14 403.02 275.55 402.59 275.26 C 402.24 274.01 401.89 272.78 401.55 271.54 C 401.03 271.59 399.98 271.69 399.45 271.74 C 402.50 261.83 406.09 252.04 410.96 242.86 C 412.83 238.40 414.50 233.83 417.16 229.75 C 417.29 229.15 417.56 227.94 417.69 227.33 C 425.89 228.67 433.15 222.85 437.18 216.24 C 439.39 211.56 438.87 206.12 438.24 201.13 C 435.21 198.98 432.56 196.11 428.88 195.05 C 423.58 193.58 417.69 192.31 412.46 194.79 M 123.83 284.78 C 121.06 289.37 121.11 294.89 121.23 300.07 C 121.97 306.15 128.06 309.35 132.99 311.78 C 139.51 313.95 147.53 314.65 153.07 309.82 C 153.84 309.78 155.38 309.71 156.15 309.67 C 157.96 311.29 159.88 312.79 161.90 314.16 C 167.54 318.04 172.05 323.28 177.36 327.58 C 182.05 331.71 187.21 335.64 190.22 341.26 C 191.77 341.76 193.34 342.20 194.92 342.64 C 193.88 343.28 192.85 343.92 191.83 344.57 C 188.79 342.80 186.61 340.00 184.00 337.72 C 183.54 344.52 181.58 351.25 182.21 358.10 C 184.49 365.82 193.74 369.25 201.15 368.20 C 209.06 366.76 217.06 361.83 219.66 353.85 C 221.25 348.73 223.19 343.07 221.22 337.78 C 219.53 332.22 213.89 329.38 209.23 326.65 C 204.12 326.32 199.00 326.53 193.91 326.92 C 193.71 327.22 193.32 327.82 193.13 328.12 C 195.48 330.21 198.14 331.93 200.59 333.91 C 200.23 334.57 199.90 335.27 199.69 336.00 C 186.97 328.05 175.77 318.02 164.21 308.52 C 162.58 308.47 160.95 308.40 159.32 308.33 C 159.25 303.74 163.29 300.52 163.75 296.06 C 164.42 291.86 162.14 288.00 160.27 284.42 C 157.46 280.21 152.78 277.84 148.54 275.31 C 144.48 272.75 139.49 273.13 134.90 273.39 C 129.14 274.32 125.74 279.74 123.83 284.78 M 334.62 289.63 C 325.17 296.15 315.15 301.88 304.82 306.88 C 293.66 311.20 282.22 315.41 270.10 315.73 C 270.10 316.09 270.08 316.83 270.07 317.19 C 278.32 319.91 285.40 324.89 292.78 329.30 C 300.42 332.39 307.69 336.74 315.97 337.91 C 319.96 338.60 324.02 338.34 328.04 338.43 C 331.84 338.54 335.33 336.76 339.02 336.11 C 345.64 333.82 352.66 331.71 357.72 326.57 C 363.10 322.65 367.64 317.08 368.04 310.16 C 368.64 302.24 368.70 293.45 364.37 286.48 C 363.52 285.54 362.69 284.59 361.88 283.64 C 356.93 283.46 352.01 282.90 347.11 282.24 C 346.58 281.69 345.51 280.59 344.98 280.04 C 341.64 283.36 337.89 286.24 334.62 289.63 M 368.84 291.47 L 369.21 291.46 C 369.32 293.16 369.46 294.86 369.62 296.56 L 370.27 296.90 C 370.38 302.89 370.51 308.92 369.09 314.79 C 367.54 322.02 360.69 325.94 355.90 330.92 C 349.83 334.80 342.83 336.83 336.02 338.96 C 328.29 341.58 319.83 340.80 311.90 339.52 C 303.16 337.23 295.24 332.71 287.16 328.80 C 279.07 323.03 269.79 319.12 260.19 316.77 C 256.85 317.52 253.48 316.34 250.14 317.01 C 243.77 317.45 237.87 314.45 232.04 312.33 C 226.19 315.76 221.77 321.11 217.96 326.61 C 220.73 329.86 222.67 333.72 225.45 336.97 C 226.32 343.72 225.94 350.72 222.98 356.94 C 219.13 364.46 213.13 372.32 204.06 373.18 C 196.82 373.69 188.80 372.92 183.01 368.10 C 181.00 372.18 178.91 376.23 176.52 380.10 C 181.42 383.36 185.72 387.63 191.28 389.80 C 199.41 393.55 207.83 396.78 216.64 398.51 C 217.86 399.18 219.02 399.93 220.27 400.58 C 220.28 400.88 220.31 401.48 220.32 401.78 C 208.24 399.07 196.46 394.96 185.49 389.22 C 182.07 387.13 179.00 384.51 175.74 382.19 C 174.62 384.76 173.57 387.38 173.12 390.17 C 178.20 391.83 183.32 393.46 188.15 395.75 C 195.83 400.11 203.00 405.68 208.16 412.93 C 211.75 417.41 215.82 421.52 218.76 426.50 C 225.07 426.33 230.95 428.95 237.11 429.87 C 250.08 432.73 263.42 436.68 273.48 445.82 C 285.00 455.06 292.35 469.15 293.68 483.84 C 293.02 484.60 292.37 485.37 291.71 486.15 C 291.01 478.36 288.40 470.88 285.04 463.86 C 281.41 457.79 276.93 452.13 271.38 447.69 C 264.91 441.70 256.72 438.17 248.52 435.28 C 239.07 433.03 229.72 430.07 220.03 429.17 C 221.79 435.35 224.51 441.32 224.69 447.85 C 226.02 453.84 224.75 459.87 223.87 465.82 C 223.04 471.36 220.65 476.46 218.52 481.59 C 216.32 486.54 214.42 491.74 211.02 496.02 C 207.56 499.27 202.58 499.73 198.54 501.96 C 197.74 502.19 197.50 503.02 197.08 503.64 C 209.37 513.07 221.50 523.17 236.13 528.81 C 245.50 532.01 254.43 537.06 264.50 537.74 C 264.63 535.55 263.43 531.12 266.93 531.23 C 269.71 530.89 270.94 533.64 271.44 535.89 C 270.95 536.86 270.47 537.85 270.02 538.85 C 272.65 539.15 275.02 538.22 276.88 536.38 C 277.19 537.34 277.52 538.32 277.83 539.31 C 286.10 541.26 294.66 540.04 303.08 540.41 C 307.06 540.72 310.92 539.15 314.90 539.67 C 323.77 540.29 332.41 538.01 341.15 537.04 C 348.48 535.79 355.86 534.73 363.09 532.96 C 368.46 532.24 373.92 531.74 379.07 529.93 C 385.58 527.87 392.61 526.99 398.53 523.36 C 412.25 516.06 426.72 509.19 437.57 497.75 C 441.57 493.36 446.08 489.45 449.72 484.74 C 454.44 478.55 459.73 472.67 463.85 466.10 C 463.12 461.88 460.93 458.12 459.86 454.00 C 457.99 446.16 456.87 438.04 457.50 429.98 C 458.84 419.48 462.61 409.52 465.61 399.44 C 469.05 393.73 471.81 387.51 476.73 382.84 C 476.06 377.04 474.34 371.39 471.75 366.16 C 468.84 360.32 466.07 354.32 462.09 349.11 C 460.12 350.12 458.33 351.42 456.46 352.58 C 458.73 358.23 460.12 364.60 458.28 370.57 C 456.89 374.64 456.16 379.04 453.83 382.72 C 449.25 387.92 444.35 392.87 438.99 397.27 C 438.55 397.37 437.68 397.58 437.25 397.69 C 435.97 398.97 434.59 400.13 433.17 401.25 C 430.67 401.77 428.33 402.79 425.87 403.43 C 421.22 403.72 416.52 403.66 411.89 403.04 C 405.25 402.20 397.84 400.97 393.20 395.63 C 390.17 392.05 386.88 388.58 384.75 384.35 C 384.12 383.34 383.67 381.58 382.08 382.14 C 375.76 382.94 369.85 385.60 363.80 387.47 C 363.28 387.37 362.25 387.18 361.73 387.08 C 362.08 393.16 360.92 399.24 359.32 405.07 C 354.69 414.19 349.86 424.74 339.97 429.12 C 337.22 431.35 334.53 433.90 330.96 434.68 C 326.45 435.82 321.80 438.04 317.13 436.59 C 308.52 435.55 301.00 430.81 294.63 425.17 C 289.86 420.81 285.91 415.62 282.97 409.88 C 282.09 407.43 281.34 404.94 281.05 402.35 C 280.56 402.43 279.57 402.59 279.08 402.66 C 278.30 402.00 277.53 401.34 276.76 400.69 C 277.97 400.46 279.19 400.06 280.19 399.32 C 279.63 393.90 278.89 388.33 280.95 383.11 C 283.21 376.03 287.26 369.66 291.54 363.65 C 295.27 358.30 300.34 354.00 306.04 350.89 C 314.66 345.49 325.70 345.53 335.03 348.95 C 347.18 353.48 355.93 364.30 360.31 376.24 C 360.25 379.49 361.00 382.63 361.72 385.79 C 368.55 383.35 375.52 381.36 382.45 379.23 C 379.81 373.49 376.72 367.51 377.38 361.01 C 376.74 349.12 382.59 337.95 390.08 329.12 C 394.02 325.83 398.17 322.58 403.05 320.81 C 412.21 317.85 422.56 318.37 431.17 322.79 C 442.85 327.90 451.15 338.69 455.90 350.23 C 457.58 349.03 459.21 347.77 460.78 346.44 C 458.39 342.50 455.77 338.70 453.30 334.81 C 447.78 326.73 440.26 320.36 432.64 314.36 C 426.55 308.63 418.62 305.65 411.57 301.37 C 406.56 298.36 400.89 296.76 395.72 294.09 C 392.85 292.87 389.64 292.74 386.82 291.38 C 381.05 288.81 375.01 286.88 368.79 285.82 C 365.81 286.20 368.75 289.63 368.84 291.47 M 404.45 325.72 C 398.70 329.39 392.47 332.73 388.49 338.47 C 383.69 345.25 379.91 353.61 380.87 362.08 C 381.48 368.86 384.96 374.93 387.73 381.03 C 391.03 384.84 394.38 388.61 397.66 392.44 C 400.62 395.08 404.27 397.05 408.07 398.19 C 412.78 398.40 417.52 398.22 422.25 398.27 C 424.93 397.24 427.60 396.17 430.32 395.22 C 439.35 390.01 447.06 382.47 452.15 373.34 C 452.71 371.53 453.37 369.75 454.28 368.09 C 455.00 364.68 454.08 361.25 453.47 357.91 C 451.86 351.73 449.56 345.56 445.09 340.85 C 442.82 338.13 440.67 335.28 437.93 333.02 C 430.03 326.87 420.22 321.66 409.88 323.79 C 408.07 324.44 406.18 324.88 404.45 325.72 M 450.98 324.48 C 456.57 331.84 461.86 339.45 466.43 347.49 C 473.21 358.07 479.83 369.39 481.26 382.11 C 483.32 390.03 485.01 398.05 485.93 406.19 C 486.99 405.59 488.21 405.11 488.86 404.00 C 491.11 400.81 493.48 397.68 495.33 394.23 C 496.22 380.94 492.66 367.58 486.48 355.87 C 482.75 346.85 477.08 338.75 470.45 331.64 C 467.47 329.27 465.51 325.29 461.48 324.61 C 458.02 323.93 454.47 324.35 450.98 324.48 M 322.56 351.72 C 315.44 350.85 309.14 355.37 303.66 359.33 C 303.11 359.37 302.01 359.47 301.46 359.52 L 301.39 360.02 C 293.85 364.27 290.20 372.36 286.77 379.87 C 284.61 387.69 285.11 395.85 285.84 403.83 C 286.32 408.84 289.91 412.40 292.61 416.35 C 296.23 420.32 301.16 422.73 305.85 425.19 C 311.71 429.14 319.21 429.78 326.05 428.86 C 331.22 428.45 334.84 424.28 339.50 422.52 C 346.46 418.44 350.39 411.01 353.76 403.95 C 355.39 400.15 357.30 396.29 357.36 392.06 C 357.65 387.20 358.31 382.06 356.38 377.44 C 354.69 373.20 353.11 368.59 349.54 365.52 C 346.85 363.22 344.63 360.44 342.01 358.07 C 340.37 357.34 338.75 356.59 337.15 355.80 C 332.31 354.40 327.75 351.49 322.56 351.72 M 476.15 386.31 C 472.25 392.67 467.36 398.76 465.90 406.25 C 462.59 416.86 458.98 427.71 459.71 438.99 C 460.05 447.00 462.87 454.58 464.94 462.26 C 465.25 462.39 465.87 462.66 466.19 462.80 C 471.57 451.63 476.64 440.06 478.93 427.80 C 480.24 421.58 482.26 415.39 481.72 408.94 C 482.24 401.16 478.97 393.91 478.14 386.29 C 477.64 386.30 476.65 386.31 476.15 386.31 M 168.16 394.29 C 167.36 394.84 165.77 395.94 164.98 396.49 L 166.04 396.47 C 162.56 398.15 159.58 400.64 156.79 403.28 C 159.80 403.63 162.85 403.74 165.85 404.28 C 171.99 405.30 176.42 410.03 181.54 413.14 C 188.90 418.94 195.26 426.14 199.83 434.35 C 204.72 441.57 205.25 450.57 205.89 458.99 C 206.88 463.40 205.25 467.76 204.62 472.09 L 204.80 472.80 L 204.32 472.65 C 201.75 478.56 198.96 484.48 194.15 488.94 C 192.97 489.99 191.86 491.10 190.84 492.30 C 188.15 493.10 185.53 494.11 182.85 494.94 C 181.97 494.49 179.09 494.12 180.20 495.98 C 182.09 497.03 184.34 496.48 186.40 496.50 C 189.80 497.22 193.11 496.04 196.22 494.80 C 199.62 493.38 203.60 493.22 206.53 490.83 C 214.75 485.46 217.04 475.17 219.12 466.23 C 219.68 461.81 220.78 457.46 220.75 453.00 C 221.64 441.59 216.97 430.56 210.92 421.16 C 207.91 415.88 202.80 412.37 199.26 407.50 C 191.23 401.29 181.93 396.81 172.08 394.38 C 170.79 394.10 169.46 394.24 168.16 394.29 M 149.29 410.02 C 148.67 412.68 148.04 415.34 147.56 418.04 C 146.97 418.06 145.79 418.11 145.20 418.13 C 145.71 416.00 146.28 413.91 146.80 411.80 C 138.57 420.67 137.00 433.36 137.53 444.96 C 138.20 450.63 140.01 456.09 141.75 461.51 C 143.90 467.02 146.52 472.67 151.09 476.60 C 149.23 470.24 146.68 464.08 145.44 457.55 C 143.61 450.52 143.27 443.25 143.12 436.03 C 143.10 430.03 144.53 424.16 145.01 418.19 C 147.87 421.42 145.47 425.83 145.19 429.57 C 143.70 435.35 145.67 441.25 144.75 447.07 C 145.78 452.05 147.05 456.98 147.83 462.01 C 149.57 466.11 150.55 470.50 152.43 474.56 C 153.64 477.13 154.37 479.90 154.70 482.73 C 159.84 488.53 166.85 492.11 174.27 494.05 C 170.64 487.53 166.56 481.22 163.72 474.30 C 158.94 463.79 156.72 452.35 155.09 440.99 C 153.59 429.73 156.07 418.49 158.01 407.45 C 155.01 407.94 152.03 408.67 149.29 410.02 M 160.24 408.18 C 159.18 413.13 158.03 418.09 157.41 423.12 C 154.44 447.15 161.89 471.62 175.14 491.60 C 180.25 492.58 186.28 492.16 189.88 488.00 C 188.37 482.08 184.86 476.90 183.02 471.08 C 179.03 460.17 177.71 448.56 176.69 437.06 C 176.53 429.31 175.29 421.37 177.61 413.81 C 172.28 410.95 166.71 406.06 160.24 408.18 M 178.58 435.28 C 178.86 444.83 180.30 454.32 182.65 463.57 C 185.13 471.69 188.40 479.56 191.91 487.29 C 196.70 481.98 200.36 475.34 200.37 468.01 C 201.70 459.30 201.42 450.34 198.94 441.85 C 194.72 431.47 187.58 422.51 179.56 414.79 C 177.46 421.43 177.82 428.46 178.58 435.28 M 372.73 535.80 L 372.86 536.56 C 371.84 537.37 370.83 538.21 369.84 539.06 C 365.22 540.25 360.57 541.33 355.91 542.37 C 350.47 543.81 344.79 543.81 339.32 545.04 C 334.59 546.06 329.74 546.12 324.97 546.86 C 316.09 546.43 307.25 547.56 298.37 547.52 C 298.72 548.71 299.08 549.91 299.46 551.11 C 300.34 551.65 301.21 552.20 302.09 552.76 C 306.22 558.10 313.10 560.13 319.14 562.52 C 327.49 565.80 336.50 563.54 345.07 562.67 C 349.64 562.38 353.75 560.14 358.20 559.26 C 364.88 555.05 371.74 550.96 377.46 545.45 C 380.97 542.19 382.94 537.64 384.14 533.08 C 380.33 533.94 376.51 534.80 372.73 535.80 M 265.25 533.32 C 265.52 534.30 266.07 536.27 266.35 537.26 C 267.36 536.84 268.36 536.39 269.35 535.92 C 270.35 533.05 266.90 533.79 265.25 533.32 M 411.05 555.76 C 411.36 561.80 418.91 562.83 421.83 567.34 C 426.78 571.68 431.82 576.16 435.19 581.90 C 437.91 583.58 439.23 586.55 438.45 589.70 L 439.31 589.70 C 439.80 592.19 441.15 594.40 442.31 596.63 C 445.42 597.02 448.46 596.33 451.35 595.23 C 452.77 592.28 454.31 589.31 454.79 586.04 C 455.00 580.16 452.58 574.55 448.93 570.04 C 445.99 564.85 440.47 562.13 435.53 559.23 C 435.19 558.90 434.52 558.24 434.19 557.91 C 426.83 555.07 418.81 554.16 411.05 555.76 M 255.04 572.93 L 255.85 573.51 C 247.13 573.67 240.00 580.83 236.15 588.25 L 236.30 588.74 C 234.28 593.06 233.39 597.80 233.56 602.56 C 234.46 609.33 236.52 616.51 242.33 620.72 C 241.77 622.48 242.39 623.18 244.21 622.85 C 250.42 628.15 259.04 629.91 266.99 629.01 C 271.00 628.01 275.57 627.93 278.80 625.03 C 285.51 618.89 290.82 610.37 290.64 601.00 C 291.09 595.13 288.19 589.82 286.27 584.47 C 279.37 574.94 266.64 569.18 255.04 572.93 Z" />
<path fill="#000000" opacity="1.00" d=" M 319.48 134.76 C 319.79 134.20 320.41 133.08 320.72 132.52 C 325.16 137.23 325.79 144.33 323.16 150.10 C 321.64 155.11 318.67 159.47 316.24 164.05 C 314.21 168.26 310.25 170.96 307.70 174.78 C 305.83 177.56 302.93 179.30 300.14 181.00 C 294.80 187.28 286.70 189.97 279.99 194.36 C 276.44 195.81 272.75 196.83 269.17 198.15 C 260.15 198.96 251.09 198.31 242.06 198.43 C 233.99 197.15 225.96 195.43 218.21 192.81 C 208.17 189.21 198.95 182.91 192.93 174.02 C 191.97 171.74 191.62 169.25 191.39 166.81 C 196.16 169.13 198.81 174.00 202.82 177.28 C 207.91 181.34 213.91 184.20 220.20 185.85 C 222.82 186.26 225.30 187.13 227.73 188.14 C 229.87 188.30 231.98 188.67 234.02 189.34 C 242.33 189.43 250.66 190.00 258.97 189.63 C 268.83 190.03 278.06 185.49 286.38 180.68 C 291.01 178.89 293.94 174.70 297.92 171.93 C 308.49 162.13 317.97 149.51 319.48 134.76 Z" />
<path fill="#000000" opacity="1.00" d=" M 283.58 318.17 C 285.03 317.47 286.44 316.70 287.75 315.77 C 287.50 317.22 287.27 318.68 287.05 320.14 C 287.75 320.14 289.15 320.14 289.85 320.14 C 290.17 319.32 290.82 317.67 291.14 316.84 C 291.29 318.01 291.45 319.19 291.61 320.37 C 289.65 321.46 287.44 321.61 285.24 321.55 C 284.68 320.42 284.13 319.29 283.58 318.17 Z" />
<path fill="#000000" opacity="1.00" d=" M 394.11 348.19 C 396.78 343.32 402.95 342.75 407.36 345.60 C 409.51 347.46 411.60 349.41 413.23 351.77 C 413.92 354.56 414.90 357.28 416.37 359.76 C 416.74 364.09 415.88 368.31 414.44 372.37 C 413.56 373.52 412.70 374.69 411.83 375.84 C 410.00 377.96 408.41 381.21 405.05 380.65 C 397.49 381.51 391.82 374.61 389.85 368.00 C 388.43 363.28 389.51 358.48 390.74 353.88 C 391.72 351.90 392.84 349.99 394.11 348.19 M 393.89 355.44 C 393.07 359.26 390.57 363.46 392.83 367.24 C 394.78 370.51 397.77 374.27 402.03 373.86 C 405.72 373.99 408.42 371.03 410.51 368.36 C 413.73 364.27 412.56 358.67 412.45 353.86 C 409.71 351.47 407.40 348.11 403.74 347.15 C 398.72 346.80 396.34 351.98 393.89 355.44 Z" />
<path fill="#000000" opacity="1.00" d=" M 304.53 368.64 C 306.96 368.24 309.46 368.18 311.92 368.41 C 318.39 371.15 321.70 377.74 324.35 383.82 C 324.30 384.91 324.25 386.01 324.21 387.11 C 323.95 392.57 320.46 396.71 318.14 401.39 C 316.28 402.84 314.31 404.15 312.27 405.34 C 307.29 406.21 302.42 404.63 298.67 401.32 C 296.33 397.53 293.69 393.61 293.52 389.01 C 293.68 385.91 294.67 382.92 294.93 379.83 C 296.92 375.30 299.80 370.67 304.53 368.64 M 296.55 393.20 C 299.10 397.05 303.91 400.57 308.71 398.74 C 315.19 396.91 319.15 390.41 320.11 384.07 C 320.10 380.88 319.68 377.08 316.97 374.98 C 312.71 372.86 307.71 373.16 303.14 373.88 C 296.95 377.93 295.64 386.37 296.55 393.20 Z" />
<path fill="#000000" opacity="1.00" d=" M 279.73 486.06 C 280.09 483.64 280.17 481.08 281.86 479.15 C 283.97 479.09 286.02 479.55 287.81 480.69 C 287.75 483.04 287.36 485.37 286.50 487.56 C 284.66 488.06 282.79 488.48 280.90 488.66 C 280.60 488.01 280.02 486.71 279.73 486.06 M 283.04 481.69 C 282.20 483.47 281.85 485.43 281.44 487.35 C 283.03 486.35 285.74 486.18 286.27 484.04 C 287.56 481.51 284.92 480.86 283.04 481.69 Z" />
</g>
<g id="#ffffffff">
<path fill="#ffffff" opacity="1.00" d=" M 185.06 26.07 C 198.38 19.70 212.90 14.27 227.92 15.50 C 236.84 17.40 246.02 17.84 254.87 20.20 C 258.85 21.26 262.98 21.76 266.87 23.16 C 271.08 24.79 275.07 26.91 278.77 29.50 C 282.80 32.36 287.42 34.58 290.52 38.57 C 293.64 42.49 299.11 44.36 303.91 43.09 C 307.41 40.66 310.34 37.50 313.58 34.74 C 317.44 32.58 321.13 30.15 324.92 27.89 C 331.97 24.92 339.35 22.51 347.01 21.84 C 354.21 21.10 361.15 23.50 368.12 24.87 C 383.94 28.21 397.80 37.64 409.10 48.92 C 413.19 52.87 416.19 57.76 419.43 62.39 C 422.88 67.38 424.07 73.41 426.27 78.97 C 427.14 82.72 428.23 86.57 427.67 90.46 C 426.93 95.89 425.16 101.11 423.19 106.20 C 420.11 112.83 416.80 119.48 412.18 125.18 C 407.46 129.44 403.74 134.78 398.21 138.13 C 397.27 138.81 396.36 139.53 395.36 140.11 C 392.56 141.64 389.57 142.79 386.51 143.67 C 379.77 145.66 373.10 148.28 366.02 148.80 C 359.41 149.31 353.05 147.08 346.52 146.50 C 345.01 151.93 346.55 157.48 346.17 162.98 C 345.32 175.98 345.69 189.03 344.78 202.03 C 344.60 212.52 343.87 223.00 344.11 233.50 C 344.50 247.51 342.27 261.39 341.08 275.30 C 338.81 279.77 333.69 281.96 329.76 284.81 C 319.08 291.17 308.31 297.53 296.99 302.64 C 295.28 302.80 293.57 302.90 291.87 303.01 C 296.22 299.84 301.65 296.64 302.68 290.88 C 303.32 288.01 301.39 285.15 298.64 284.34 C 290.57 281.62 281.10 284.31 273.74 279.26 C 268.47 275.60 263.42 271.61 258.42 267.60 C 250.21 260.83 245.90 250.68 238.06 243.57 C 235.29 237.98 232.30 232.50 230.00 226.70 C 227.70 220.05 221.04 216.59 215.05 213.85 C 207.97 210.38 199.70 210.47 192.15 212.17 C 188.17 212.92 185.47 216.10 182.86 218.92 C 181.27 217.93 179.69 216.94 178.12 215.91 C 177.23 215.30 176.35 214.70 175.47 214.09 C 175.40 211.80 175.32 209.51 175.27 207.22 C 169.70 210.98 163.33 213.14 157.45 216.31 C 147.78 217.99 137.94 218.75 128.13 218.59 C 125.35 218.30 122.64 217.62 119.92 217.06 C 112.07 214.95 104.77 211.11 97.69 207.20 C 89.11 202.14 84.85 192.75 81.24 183.93 C 80.46 181.26 79.82 178.55 79.12 175.87 C 78.68 174.94 78.25 174.02 77.83 173.09 C 75.96 162.75 76.69 152.08 78.90 141.85 C 80.73 137.46 83.02 133.28 84.81 128.88 C 87.78 123.92 91.64 119.58 94.83 114.76 C 99.33 107.51 106.02 101.91 112.90 97.02 C 117.57 93.15 123.48 91.23 129.14 89.32 C 134.13 87.57 140.53 88.70 144.10 84.01 C 145.56 81.17 146.26 77.95 147.05 74.85 C 147.08 71.43 148.19 68.21 148.91 64.91 C 152.35 56.86 157.04 49.37 162.90 42.85 C 169.63 36.47 176.65 30.17 185.06 26.07 M 403.37 79.41 C 399.13 80.15 396.08 83.43 393.58 86.69 C 389.86 91.46 384.96 95.55 379.02 97.11 C 371.04 99.65 362.04 96.22 354.48 100.40 C 349.63 103.36 344.76 106.86 342.04 111.99 C 338.95 117.24 338.15 123.70 339.48 129.59 C 341.95 136.97 349.21 142.44 356.99 142.81 C 362.71 143.10 368.69 143.35 374.11 141.16 C 379.29 139.33 383.63 135.83 388.67 133.69 C 392.13 132.19 395.71 130.87 398.88 128.78 C 406.29 124.21 410.56 115.52 411.00 106.97 C 411.41 99.55 414.16 92.08 412.31 84.67 C 411.41 80.79 407.00 79.02 403.37 79.41 M 296.33 122.47 C 292.32 124.07 289.86 127.90 286.91 130.86 C 281.75 136.74 274.70 140.50 267.63 143.58 C 259.68 147.00 250.54 146.34 242.57 143.36 C 235.29 140.57 230.24 134.20 223.29 130.83 C 216.76 127.56 208.67 126.96 201.95 129.98 C 196.09 132.51 192.50 138.75 192.18 144.98 C 191.95 149.52 191.74 154.28 193.36 158.61 C 194.62 162.07 197.43 164.55 199.74 167.29 C 204.66 173.36 210.41 179.36 217.94 182.03 C 231.40 186.75 245.90 185.83 259.93 185.89 C 265.46 186.10 270.63 183.92 275.37 181.29 C 281.48 177.91 288.47 175.73 293.44 170.60 C 298.50 165.47 301.17 158.66 304.37 152.34 C 307.46 146.38 308.47 139.62 308.89 133.00 C 308.98 130.00 309.06 126.55 306.83 124.22 C 304.31 121.18 299.77 121.92 296.33 122.47 M 319.48 134.76 C 317.97 149.51 308.49 162.13 297.92 171.93 C 293.94 174.70 291.01 178.89 286.38 180.68 C 278.06 185.49 268.83 190.03 258.97 189.63 C 250.66 190.00 242.33 189.43 234.02 189.34 C 231.98 188.67 229.87 188.30 227.73 188.14 C 225.30 187.13 222.82 186.26 220.20 185.85 C 213.91 184.20 207.91 181.34 202.82 177.28 C 198.81 174.00 196.16 169.13 191.39 166.81 C 191.62 169.25 191.97 171.74 192.93 174.02 C 198.95 182.91 208.17 189.21 218.21 192.81 C 225.96 195.43 233.99 197.15 242.06 198.43 C 251.09 198.31 260.15 198.96 269.17 198.15 C 272.75 196.83 276.44 195.81 279.99 194.36 C 286.70 189.97 294.80 187.28 300.14 181.00 C 302.93 179.30 305.83 177.56 307.70 174.78 C 310.25 170.96 314.21 168.26 316.24 164.05 C 318.67 159.47 321.64 155.11 323.16 150.10 C 325.79 144.33 325.16 137.23 320.72 132.52 C 320.41 133.08 319.79 134.20 319.48 134.76 M 100.38 139.56 C 96.83 139.88 93.03 140.89 90.73 143.82 C 86.84 148.62 84.74 154.69 83.69 160.72 C 82.04 170.44 85.64 180.16 90.61 188.38 C 95.53 197.14 103.01 205.23 112.98 207.97 C 121.52 211.51 130.89 211.84 140.01 211.65 C 146.32 211.72 152.81 210.56 158.20 207.12 C 162.79 204.51 166.42 200.08 167.55 194.87 C 168.20 191.86 166.81 188.41 163.92 187.11 C 155.99 183.75 147.04 184.06 139.04 180.96 C 130.92 177.33 126.91 168.85 123.90 161.01 C 121.24 155.43 119.93 149.03 115.73 144.30 C 111.81 140.29 105.77 139.25 100.38 139.56 M 318.34 193.38 C 318.19 198.01 319.51 202.50 320.05 207.07 C 320.78 212.41 321.01 217.81 321.87 223.14 C 322.28 225.77 322.48 228.44 323.08 231.04 C 323.22 238.33 324.24 245.55 325.55 252.71 C 326.10 252.36 327.19 251.64 327.73 251.28 C 326.47 243.91 325.61 236.48 325.11 229.02 C 324.08 218.30 322.83 207.60 321.01 196.98 C 320.66 195.49 320.55 193.38 318.34 193.38 M 207.33 206.26 C 207.83 206.76 207.83 206.76 207.33 206.26 M 276.53 215.48 C 277.33 219.23 278.64 222.85 280.11 226.39 C 280.20 226.71 280.37 227.33 280.46 227.64 C 281.81 234.03 283.95 240.26 286.13 246.42 C 286.68 248.65 287.45 250.82 288.16 253.01 C 288.32 253.50 288.64 254.48 288.80 254.96 C 290.87 261.06 292.33 267.36 294.61 273.39 C 295.02 273.80 295.84 274.64 296.26 275.05 C 297.27 271.97 295.94 268.97 294.76 266.17 C 293.76 263.19 292.99 260.13 292.14 257.10 C 291.24 254.78 290.66 252.36 290.18 249.93 C 287.51 240.97 284.38 232.15 281.92 223.13 C 281.19 220.24 281.18 212.89 276.53 215.48 Z" />
<path fill="#ffffff" opacity="1.00" d=" M 404.45 325.72 C 406.18 324.88 408.07 324.44 409.88 323.79 C 420.22 321.66 430.03 326.87 437.93 333.02 C 440.67 335.28 442.82 338.13 445.09 340.85 C 449.56 345.56 451.86 351.73 453.47 357.91 C 454.08 361.25 455.00 364.68 454.28 368.09 C 453.37 369.75 452.71 371.53 452.15 373.34 C 447.06 382.47 439.35 390.01 430.32 395.22 C 427.60 396.17 424.93 397.24 422.25 398.27 C 417.52 398.22 412.78 398.40 408.07 398.19 C 404.27 397.05 400.62 395.08 397.66 392.44 C 394.38 388.61 391.03 384.84 387.73 381.03 C 384.96 374.93 381.48 368.86 380.87 362.08 C 379.91 353.61 383.69 345.25 388.49 338.47 C 392.47 332.73 398.70 329.39 404.45 325.72 M 394.11 348.19 C 392.84 349.99 391.72 351.90 390.74 353.88 C 389.51 358.48 388.43 363.28 389.85 368.00 C 391.82 374.61 397.49 381.51 405.05 380.65 C 408.41 381.21 410.00 377.96 411.83 375.84 C 412.70 374.69 413.56 373.52 414.44 372.37 C 415.88 368.31 416.74 364.09 416.37 359.76 C 414.90 357.28 413.92 354.56 413.23 351.77 C 411.60 349.41 409.51 347.46 407.36 345.60 C 402.95 342.75 396.78 343.32 394.11 348.19 Z" />
<path fill="#ffffff" opacity="1.00" d=" M 322.56 351.72 C 327.75 351.49 332.31 354.40 337.15 355.80 C 338.75 356.59 340.37 357.34 342.01 358.07 C 344.63 360.44 346.85 363.22 349.54 365.52 C 353.11 368.59 354.69 373.20 356.38 377.44 C 358.31 382.06 357.65 387.20 357.36 392.06 C 357.30 396.29 355.39 400.15 353.76 403.95 C 350.39 411.01 346.46 418.44 339.50 422.52 C 334.84 424.28 331.22 428.45 326.05 428.86 C 319.21 429.78 311.71 429.14 305.85 425.19 C 301.16 422.73 296.23 420.32 292.61 416.35 C 289.91 412.40 286.32 408.84 285.84 403.83 C 285.11 395.85 284.61 387.69 286.77 379.87 C 290.20 372.36 293.85 364.27 301.39 360.02 L 301.46 359.52 C 302.01 359.47 303.11 359.37 303.66 359.33 C 309.14 355.37 315.44 350.85 322.56 351.72 M 304.53 368.64 C 299.80 370.67 296.92 375.30 294.93 379.83 C 294.67 382.92 293.68 385.91 293.52 389.01 C 293.69 393.61 296.33 397.53 298.67 401.32 C 302.42 404.63 307.29 406.21 312.27 405.34 C 314.31 404.15 316.28 402.84 318.14 401.39 C 320.46 396.71 323.95 392.57 324.21 387.11 C 324.25 386.01 324.30 384.91 324.35 383.82 C 321.70 377.74 318.39 371.15 311.92 368.41 C 309.46 368.18 306.96 368.24 304.53 368.64 Z" />
<path fill="#ffffff" opacity="1.00" d=" M 401.06 459.82 C 403.15 459.28 405.32 459.42 407.45 459.67 C 407.13 470.12 404.95 480.73 400.23 490.13 C 398.91 492.27 397.50 494.35 396.19 496.49 L 395.87 496.55 C 393.79 499.85 390.04 501.17 386.65 502.66 C 382.91 501.85 379.63 499.78 376.90 497.16 C 374.57 492.12 372.97 486.59 373.51 480.99 C 373.54 476.43 374.67 471.98 374.85 467.44 C 382.34 465.66 389.47 462.54 397.02 460.97 C 398.36 460.59 399.71 460.21 401.06 459.82 Z" />
</g>
<g id="#e6f9ffff">
<path fill="#e6f9ff" opacity="1.00" d=" M 403.37 79.41 C 407.00 79.02 411.41 80.79 412.31 84.67 C 414.16 92.08 411.41 99.55 411.00 106.97 C 410.56 115.52 406.29 124.21 398.88 128.78 C 395.71 130.87 392.13 132.19 388.67 133.69 C 383.63 135.83 379.29 139.33 374.11 141.16 C 368.69 143.35 362.71 143.10 356.99 142.81 C 349.21 142.44 341.95 136.97 339.48 129.59 C 338.15 123.70 338.95 117.24 342.04 111.99 C 344.76 106.86 349.63 103.36 354.48 100.40 C 362.04 96.22 371.04 99.65 379.02 97.11 C 384.96 95.55 389.86 91.46 393.58 86.69 C 396.08 83.43 399.13 80.15 403.37 79.41 M 395.28 97.25 C 391.80 100.77 387.18 102.79 382.69 104.69 C 377.71 106.77 372.21 105.45 367.00 105.92 C 360.63 106.15 354.02 108.96 350.43 114.41 C 348.95 117.67 348.87 121.37 347.46 124.66 C 346.82 126.71 345.44 128.76 345.99 130.98 C 346.54 133.73 349.12 135.32 351.32 136.69 C 355.97 139.70 361.77 139.11 367.03 138.90 C 372.76 138.58 377.55 135.09 382.43 132.45 C 386.36 130.21 390.69 128.82 394.69 126.72 C 398.64 124.66 401.55 121.19 404.61 118.05 C 404.57 117.70 404.50 117.02 404.46 116.67 C 404.10 110.92 402.38 105.16 403.58 99.39 C 404.27 96.05 404.39 92.60 403.39 89.30 C 400.53 91.79 397.96 94.58 395.28 97.25 Z" />
<path fill="#e6f9ff" opacity="1.00" d=" M 192.15 212.17 C 199.70 210.47 207.97 210.38 215.05 213.85 C 221.04 216.59 227.70 220.05 230.00 226.70 C 229.26 226.41 227.79 225.81 227.05 225.52 C 229.18 232.34 232.86 238.51 235.96 244.90 C 235.39 245.01 234.25 245.22 233.69 245.33 C 228.24 237.53 221.95 230.40 216.04 222.97 C 211.69 217.41 204.01 215.04 197.17 216.05 C 194.28 216.68 190.78 217.67 189.47 220.61 C 189.55 223.91 190.78 227.04 191.35 230.27 C 187.34 225.12 182.71 220.53 178.12 215.91 C 179.69 216.94 181.27 217.93 182.86 218.92 C 185.47 216.10 188.17 212.92 192.15 212.17 Z" />
</g>
<g id="#d3f4ffff">
<path fill="#d3f4ff" opacity="1.00" d=" M 395.28 97.25 C 397.96 94.58 400.53 91.79 403.39 89.30 C 404.39 92.60 404.27 96.05 403.58 99.39 C 402.38 105.16 404.10 110.92 404.46 116.67 C 403.27 116.05 402.46 116.24 402.02 117.24 C 402.61 118.19 403.48 118.45 404.61 118.05 C 401.55 121.19 398.64 124.66 394.69 126.72 C 390.69 128.82 386.36 130.21 382.43 132.45 C 377.55 135.09 372.76 138.58 367.03 138.90 C 361.77 139.11 355.97 139.70 351.32 136.69 C 349.12 135.32 346.54 133.73 345.99 130.98 C 345.44 128.76 346.82 126.71 347.46 124.66 C 348.87 121.37 348.95 117.67 350.43 114.41 C 354.02 108.96 360.63 106.15 367.00 105.92 C 372.21 105.45 377.71 106.77 382.69 104.69 C 387.18 102.79 391.80 100.77 395.28 97.25 Z" />
<path fill="#d3f4ff" opacity="1.00" d=" M 283.16 146.12 C 288.94 142.68 293.21 137.38 298.40 133.20 C 300.52 140.49 295.78 147.32 292.39 153.41 C 288.39 159.21 287.27 167.00 281.27 171.32 C 275.11 175.79 269.09 181.60 261.03 181.92 C 249.67 182.40 238.18 182.29 226.96 180.20 C 217.87 178.58 209.00 173.99 203.44 166.47 C 200.63 162.94 198.16 158.27 199.60 153.68 C 200.66 150.26 201.56 146.80 202.41 143.33 C 203.11 140.26 206.06 138.19 209.09 137.90 C 216.14 136.65 222.80 140.58 227.80 145.17 C 238.15 154.23 252.88 156.58 266.11 154.13 C 272.20 152.49 277.75 149.30 283.16 146.12 M 206.57 157.68 C 206.78 160.04 206.56 162.71 208.22 164.64 C 212.23 170.11 218.74 173.07 225.07 174.98 C 235.54 177.28 246.34 177.74 257.03 177.33 C 259.06 177.48 260.50 175.90 262.04 174.86 C 254.24 171.88 245.96 170.37 237.73 169.12 C 229.61 167.74 222.36 163.66 215.42 159.44 C 212.79 157.69 209.61 157.60 206.57 157.68 Z" />
<path fill="#d3f4ff" opacity="1.00" d=" M 189.47 220.61 C 190.78 217.67 194.28 216.68 197.17 216.05 C 204.01 215.04 211.69 217.41 216.04 222.97 C 221.95 230.40 228.24 237.53 233.69 245.33 C 234.25 245.22 235.39 245.01 235.96 244.90 C 241.44 257.14 246.99 269.39 254.13 280.77 C 256.38 284.09 257.75 288.50 261.82 290.05 C 262.23 289.26 263.04 287.69 263.44 286.90 C 262.79 286.81 261.47 286.62 260.81 286.53 C 254.91 276.89 248.84 267.33 244.23 256.99 C 242.30 252.46 240.05 248.07 238.06 243.57 C 245.90 250.68 250.21 260.83 258.42 267.60 C 263.42 271.61 268.47 275.60 273.74 279.26 C 281.10 284.31 290.57 281.62 298.64 284.34 C 301.39 285.15 303.32 288.01 302.68 290.88 C 301.65 296.64 296.22 299.84 291.87 303.01 C 293.57 302.90 295.28 302.80 296.99 302.64 C 288.74 306.33 279.77 308.53 270.71 308.59 C 265.46 308.55 260.23 309.64 254.99 308.85 C 248.94 308.26 242.65 308.24 236.96 305.88 C 233.67 304.91 233.62 300.73 232.19 298.19 C 237.17 300.32 241.52 303.85 246.85 305.17 C 253.73 306.99 261.12 308.01 268.10 306.11 C 274.58 304.19 281.34 301.88 285.92 296.62 C 274.33 293.39 261.31 294.02 251.05 286.90 C 243.42 282.35 237.99 275.22 232.80 268.20 C 228.36 262.04 221.72 257.60 218.38 250.65 C 214.74 243.13 212.78 234.96 209.90 227.16 C 208.28 222.70 204.13 218.35 199.01 218.99 C 196.51 219.27 192.55 220.33 193.37 223.64 C 196.21 232.32 205.76 238.35 205.26 248.23 C 200.84 242.13 196.12 236.28 191.39 230.43 L 191.35 230.27 C 190.78 227.04 189.55 223.91 189.47 220.61 Z" />
</g>
<g id="#bfd6dfee">
<path fill="#bfd6df" opacity="0.93" d=" M 402.02 117.24 C 402.46 116.24 403.27 116.05 404.46 116.67 C 404.50 117.02 404.57 117.70 404.61 118.05 C 403.48 118.45 402.61 118.19 402.02 117.24 Z" />
</g>
<g id="#e3f8ffff">
<path fill="#e3f8ff" opacity="1.00" d=" M 296.33 122.47 C 299.77 121.92 304.31 121.18 306.83 124.22 C 309.06 126.55 308.98 130.00 308.89 133.00 C 308.47 139.62 307.46 146.38 304.37 152.34 C 301.17 158.66 298.50 165.47 293.44 170.60 C 288.47 175.73 281.48 177.91 275.37 181.29 C 270.63 183.92 265.46 186.10 259.93 185.89 C 245.90 185.83 231.40 186.75 217.94 182.03 C 210.41 179.36 204.66 173.36 199.74 167.29 C 197.43 164.55 194.62 162.07 193.36 158.61 C 191.74 154.28 191.95 149.52 192.18 144.98 C 192.50 138.75 196.09 132.51 201.95 129.98 C 208.67 126.96 216.76 127.56 223.29 130.83 C 230.24 134.20 235.29 140.57 242.57 143.36 C 250.54 146.34 259.68 147.00 267.63 143.58 C 274.70 140.50 281.75 136.74 286.91 130.86 C 289.86 127.90 292.32 124.07 296.33 122.47 M 283.16 146.12 C 277.75 149.30 272.20 152.49 266.11 154.13 C 252.88 156.58 238.15 154.23 227.80 145.17 C 222.80 140.58 216.14 136.65 209.09 137.90 C 206.06 138.19 203.11 140.26 202.41 143.33 C 201.56 146.80 200.66 150.26 199.60 153.68 C 198.16 158.27 200.63 162.94 203.44 166.47 C 209.00 173.99 217.87 178.58 226.96 180.20 C 238.18 182.29 249.67 182.40 261.03 181.92 C 269.09 181.60 275.11 175.79 281.27 171.32 C 287.27 167.00 288.39 159.21 292.39 153.41 C 295.78 147.32 300.52 140.49 298.40 133.20 C 293.21 137.38 288.94 142.68 283.16 146.12 Z" />
</g>
<g id="#d7f5ffff">
<path fill="#d7f5ff" opacity="1.00" d=" M 100.38 139.56 C 105.77 139.25 111.81 140.29 115.73 144.30 C 119.93 149.03 121.24 155.43 123.90 161.01 C 126.91 168.85 130.92 177.33 139.04 180.96 C 147.04 184.06 155.99 183.75 163.92 187.11 C 166.81 188.41 168.20 191.86 167.55 194.87 C 166.42 200.08 162.79 204.51 158.20 207.12 C 152.81 210.56 146.32 211.72 140.01 211.65 C 130.89 211.84 121.52 211.51 112.98 207.97 C 103.01 205.23 95.53 197.14 90.61 188.38 C 85.64 180.16 82.04 170.44 83.69 160.72 C 84.74 154.69 86.84 148.62 90.73 143.82 C 93.03 140.89 96.83 139.88 100.38 139.56 M 99.28 183.25 C 97.07 186.04 99.08 189.70 100.81 192.18 C 104.24 196.23 108.99 198.94 113.68 201.32 C 123.54 205.72 135.59 207.16 145.57 202.46 C 139.59 198.65 132.21 197.76 126.56 193.34 C 120.93 189.77 117.69 182.69 110.74 181.28 C 106.96 180.46 102.06 179.98 99.28 183.25 Z" />
</g>
<g id="#777778ec">
<path fill="#777778" opacity="0.93" d=" M 386.51 143.67 C 389.57 142.79 392.56 141.64 395.36 140.11 C 392.11 143.31 387.48 144.09 383.31 145.43 C 376.72 147.49 370.02 149.85 363.01 149.44 C 357.54 149.62 352.34 147.59 346.91 147.31 C 345.96 153.85 347.28 160.45 346.72 167.02 C 346.00 174.33 346.63 181.68 345.86 188.98 C 346.02 197.02 345.13 205.03 345.24 213.07 C 344.69 219.87 345.07 226.73 344.11 233.50 C 343.87 223.00 344.60 212.52 344.78 202.03 C 345.69 189.03 345.32 175.98 346.17 162.98 C 346.55 157.48 345.01 151.93 346.52 146.50 C 353.05 147.08 359.41 149.31 366.02 148.80 C 373.10 148.28 379.77 145.66 386.51 143.67 Z" />
</g>
<g id="#bbedffff">
<path fill="#bbedff" opacity="1.00" d=" M 206.57 157.68 C 209.61 157.60 212.79 157.69 215.42 159.44 C 222.36 163.66 229.61 167.74 237.73 169.12 C 245.96 170.37 254.24 171.88 262.04 174.86 C 260.50 175.90 259.06 177.48 257.03 177.33 C 246.34 177.74 235.54 177.28 225.07 174.98 C 218.74 173.07 212.23 170.11 208.22 164.64 C 206.56 162.71 206.78 160.04 206.57 157.68 Z" />
</g>
<g id="#beeeffff">
<path fill="#beeeff" opacity="1.00" d=" M 99.28 183.25 C 102.06 179.98 106.96 180.46 110.74 181.28 C 117.69 182.69 120.93 189.77 126.56 193.34 C 132.21 197.76 139.59 198.65 145.57 202.46 C 135.59 207.16 123.54 205.72 113.68 201.32 C 108.99 198.94 104.24 196.23 100.81 192.18 C 99.08 189.70 97.07 186.04 99.28 183.25 Z" />
</g>
<g id="#f0f134ff">
<path fill="#f0f134" opacity="1.00" d=" M 412.46 194.79 C 417.69 192.31 423.58 193.58 428.88 195.05 C 432.56 196.11 435.21 198.98 438.24 201.13 C 438.87 206.12 439.39 211.56 437.18 216.24 C 433.15 222.85 425.89 228.67 417.69 227.33 C 417.56 227.94 417.29 229.15 417.16 229.75 C 414.50 233.83 412.83 238.40 410.96 242.86 C 406.09 252.04 402.50 261.83 399.45 271.74 C 399.98 271.69 401.03 271.59 401.55 271.54 C 401.89 272.78 402.24 274.01 402.59 275.26 C 403.02 275.55 403.90 276.14 404.33 276.43 C 408.04 282.35 412.48 288.35 412.98 295.57 C 403.54 290.57 393.63 286.43 383.41 283.33 C 379.13 281.84 374.94 280.03 370.47 279.20 C 370.00 278.10 369.53 276.99 369.08 275.89 C 373.65 271.65 379.88 269.85 385.89 268.83 C 389.16 268.00 392.07 270.16 395.13 270.94 C 395.28 268.45 395.05 265.81 396.30 263.54 C 400.80 254.00 404.07 243.95 408.25 234.28 C 409.74 231.25 410.63 227.97 411.37 224.69 C 413.27 224.65 415.17 224.62 417.08 224.59 C 416.77 222.26 417.17 219.51 415.32 217.72 C 412.25 214.20 407.70 212.64 403.45 211.05 C 403.16 207.25 404.77 203.81 406.87 200.77 C 407.56 200.24 408.26 199.71 408.95 199.19 C 410.02 197.66 410.91 195.89 412.46 194.79 M 413.28 197.25 C 410.08 199.19 409.72 203.89 410.91 207.09 C 414.40 210.94 422.53 207.44 421.69 201.97 C 422.33 197.67 416.57 195.12 413.28 197.25 Z" />
<path fill="#f0f134" opacity="1.00" d=" M 123.83 284.78 C 125.74 279.74 129.14 274.32 134.90 273.39 C 139.49 273.13 144.48 272.75 148.54 275.31 C 152.78 277.84 157.46 280.21 160.27 284.42 C 162.14 288.00 164.42 291.86 163.75 296.06 C 163.29 300.52 159.25 303.74 159.32 308.33 C 160.95 308.40 162.58 308.47 164.21 308.52 C 175.77 318.02 186.97 328.05 199.69 336.00 C 199.90 335.27 200.23 334.57 200.59 333.91 C 198.14 331.93 195.48 330.21 193.13 328.12 C 193.32 327.82 193.71 327.22 193.91 326.92 C 199.00 326.53 204.12 326.32 209.23 326.65 C 213.89 329.38 219.53 332.22 221.22 337.78 C 223.19 343.07 221.25 348.73 219.66 353.85 C 217.06 361.83 209.06 366.76 201.15 368.20 C 193.74 369.25 184.49 365.82 182.21 358.10 C 181.58 351.25 183.54 344.52 184.00 337.72 C 186.61 340.00 188.79 342.80 191.83 344.57 C 192.85 343.92 193.88 343.28 194.92 342.64 C 193.34 342.20 191.77 341.76 190.22 341.26 C 187.21 335.64 182.05 331.71 177.36 327.58 C 172.05 323.28 167.54 318.04 161.90 314.16 C 159.88 312.79 157.96 311.29 156.15 309.67 C 155.38 309.71 153.84 309.78 153.07 309.82 C 155.03 307.67 158.43 304.82 156.47 301.68 C 153.05 299.72 149.10 302.01 145.51 302.28 C 140.68 303.39 135.07 301.91 130.82 304.91 C 129.48 307.36 131.94 309.72 132.99 311.78 C 128.06 309.35 121.97 306.15 121.23 300.07 C 121.11 294.89 121.06 289.37 123.83 284.78 M 125.47 287.34 C 125.03 291.08 122.31 297.08 126.94 299.12 C 129.41 299.96 132.91 300.08 134.52 297.62 C 135.85 295.55 135.92 292.88 135.38 290.55 C 133.47 287.11 129.03 285.89 125.47 287.34 Z" />
<path fill="#f0f134" opacity="1.00" d=" M 450.98 324.48 C 454.47 324.35 458.02 323.93 461.48 324.61 C 465.51 325.29 467.47 329.27 470.45 331.64 C 477.08 338.75 482.75 346.85 486.48 355.87 C 492.66 367.58 496.22 380.94 495.33 394.23 C 493.48 397.68 491.11 400.81 488.86 404.00 C 488.21 405.11 486.99 405.59 485.93 406.19 C 485.01 398.05 483.32 390.03 481.26 382.11 C 479.83 369.39 473.21 358.07 466.43 347.49 C 461.86 339.45 456.57 331.84 450.98 324.48 Z" />
<path fill="#f0f134" opacity="1.00" d=" M 168.16 394.29 C 169.46 394.24 170.79 394.10 172.08 394.38 C 181.93 396.81 191.23 401.29 199.26 407.50 C 202.80 412.37 207.91 415.88 210.92 421.16 C 216.97 430.56 221.64 441.59 220.75 453.00 C 220.78 457.46 219.68 461.81 219.12 466.23 C 217.04 475.17 214.75 485.46 206.53 490.83 C 203.60 493.22 199.62 493.38 196.22 494.80 C 193.11 496.04 189.80 497.22 186.40 496.50 C 185.20 496.00 184.03 495.45 182.85 494.94 C 185.53 494.11 188.15 493.10 190.84 492.30 C 196.52 491.81 202.91 491.62 207.19 487.27 C 210.30 484.87 209.85 480.44 209.15 477.03 C 208.70 474.85 206.34 474.06 204.80 472.80 L 204.62 472.09 C 205.25 467.76 206.88 463.40 205.89 458.99 C 205.25 450.57 204.72 441.57 199.83 434.35 C 195.26 426.14 188.90 418.94 181.54 413.14 C 176.42 410.03 171.99 405.30 165.85 404.28 C 162.85 403.74 159.80 403.63 156.79 403.28 C 159.58 400.64 162.56 398.15 166.04 396.47 C 166.35 398.35 166.43 400.30 166.96 402.15 C 169.16 402.55 171.41 402.62 173.64 402.80 C 174.01 401.12 174.31 399.42 174.53 397.72 C 172.09 395.90 168.86 396.61 166.04 396.47 L 164.98 396.49 C 165.77 395.94 167.36 394.84 168.16 394.29 Z" />
<path fill="#f0f134" opacity="1.00" d=" M 372.73 535.80 C 376.51 534.80 380.33 533.94 384.14 533.08 C 382.94 537.64 380.97 542.19 377.46 545.45 C 371.74 550.96 364.88 555.05 358.20 559.26 C 353.75 560.14 349.64 562.38 345.07 562.67 C 336.50 563.54 327.49 565.80 319.14 562.52 C 313.10 560.13 306.22 558.10 302.09 552.76 C 301.20 551.31 300.39 549.80 299.59 548.32 C 306.00 549.49 310.91 554.50 317.41 555.27 C 328.40 556.72 339.63 559.29 350.65 556.65 C 358.39 554.81 366.20 551.50 371.74 545.64 C 374.28 543.22 373.43 539.59 372.86 536.56 L 372.73 535.80 Z" />
<path fill="#f0f134" opacity="1.00" d=" M 411.05 555.76 C 418.81 554.16 426.83 555.07 434.19 557.91 C 434.52 558.24 435.19 558.90 435.53 559.23 C 440.47 562.13 445.99 564.85 448.93 570.04 C 452.58 574.55 455.00 580.16 454.79 586.04 C 454.31 589.31 452.77 592.28 451.35 595.23 C 448.46 596.33 445.42 597.02 442.31 596.63 C 444.65 593.57 449.97 590.47 448.15 586.00 C 445.37 583.88 441.80 585.42 438.73 585.79 C 438.90 587.09 439.09 588.39 439.31 589.70 L 438.45 589.70 C 439.23 586.55 437.91 583.58 435.19 581.90 C 431.82 576.16 426.78 571.68 421.83 567.34 C 418.91 562.83 411.36 561.80 411.05 555.76 Z" />
<path fill="#f0f134" opacity="1.00" d=" M 255.04 572.93 C 266.64 569.18 279.37 574.94 286.27 584.47 C 288.19 589.82 291.09 595.13 290.64 601.00 C 290.82 610.37 285.51 618.89 278.80 625.03 C 275.57 627.93 271.00 628.01 266.99 629.01 C 272.37 625.94 277.86 620.89 277.11 614.10 C 269.51 613.48 261.89 615.76 254.34 614.46 C 249.00 612.57 247.15 606.38 242.75 603.19 C 240.16 600.93 236.58 602.31 233.56 602.56 C 233.39 597.80 234.28 593.06 236.30 588.74 C 237.22 592.52 238.81 596.83 242.97 598.01 C 248.04 599.48 254.12 599.66 258.63 596.57 C 263.26 593.21 265.23 586.78 263.53 581.36 C 262.10 577.86 258.76 575.69 255.85 573.51 L 255.04 572.93 Z" />
</g>
<g id="#000000fd">
<path fill="#000000" opacity="1.00" d=" M 318.34 193.38 C 320.55 193.38 320.66 195.49 321.01 196.98 C 322.83 207.60 324.08 218.30 325.11 229.02 C 325.61 236.48 326.47 243.91 327.73 251.28 C 327.19 251.64 326.10 252.36 325.55 252.71 C 324.24 245.55 323.22 238.33 323.08 231.04 C 322.48 228.44 322.28 225.77 321.87 223.14 C 321.01 217.81 320.78 212.41 320.05 207.07 C 319.51 202.50 318.19 198.01 318.34 193.38 Z" />
<path fill="#000000" opacity="1.00" d=" M 278.21 216.18 C 280.60 217.23 280.80 220.88 281.92 223.13 C 284.38 232.15 287.51 240.97 290.18 249.93 C 290.66 252.36 291.24 254.78 292.14 257.10 C 292.99 260.13 293.76 263.19 294.76 266.17 C 295.94 268.97 297.27 271.97 296.26 275.05 C 295.84 274.64 295.02 273.80 294.61 273.39 C 292.33 267.36 290.87 261.06 288.80 254.96 C 288.64 254.48 288.32 253.50 288.16 253.01 C 287.45 250.82 286.68 248.65 286.13 246.42 C 284.92 239.97 282.97 233.69 280.46 227.64 C 280.37 227.33 280.20 226.71 280.11 226.39 C 279.37 223.01 278.24 219.67 278.21 216.18 Z" />
<path fill="#000000" opacity="1.00" d=" M 227.05 225.52 C 227.79 225.81 229.26 226.41 230.00 226.70 C 232.30 232.50 235.29 237.98 238.06 243.57 C 240.05 248.07 242.30 252.46 244.23 256.99 C 248.84 267.33 254.91 276.89 260.81 286.53 C 261.47 286.62 262.79 286.81 263.44 286.90 C 263.04 287.69 262.23 289.26 261.82 290.05 C 257.75 288.50 256.38 284.09 254.13 280.77 C 246.99 269.39 241.44 257.14 235.96 244.90 C 232.86 238.51 229.18 232.34 227.05 225.52 Z" />
</g>
<g id="#f8f897ff">
<path fill="#f8f897" opacity="1.00" d=" M 413.28 197.25 C 416.57 195.12 422.33 197.67 421.69 201.97 C 422.53 207.44 414.40 210.94 410.91 207.09 C 409.72 203.89 410.08 199.19 413.28 197.25 M 414.04 200.05 C 412.33 201.60 412.89 203.95 412.95 205.98 C 414.94 205.52 417.83 206.09 418.86 203.81 C 421.43 200.95 416.21 197.64 414.04 200.05 Z" />
</g>
<g id="#fffff4ff">
<path fill="#fffff4" opacity="1.00" d=" M 414.04 200.05 C 416.21 197.64 421.43 200.95 418.86 203.81 C 417.83 206.09 414.94 205.52 412.95 205.98 C 412.89 203.95 412.33 201.60 414.04 200.05 Z" />
</g>
<g id="#c7c6c8f2">
<path fill="#c7c6c8" opacity="0.95" d=" M 207.33 206.26 C 207.83 206.76 207.83 206.76 207.33 206.26 Z" />
</g>
<g id="#f6d638ff">
<path fill="#f6d638" opacity="1.00" d=" M 403.45 211.05 C 407.70 212.64 412.25 214.20 415.32 217.72 C 417.17 219.51 416.77 222.26 417.08 224.59 C 415.17 224.62 413.27 224.65 411.37 224.69 C 410.63 227.97 409.74 231.25 408.25 234.28 C 409.41 230.71 410.52 227.07 410.38 223.26 C 407.38 221.21 405.54 218.08 403.83 214.98 C 403.72 213.66 403.59 212.36 403.45 211.05 Z" />
</g>
<g id="#8d8d8de5">
<path fill="#8d8d8d" opacity="0.90" d=" M 276.53 215.48 C 281.18 212.89 281.19 220.24 281.92 223.13 C 280.80 220.88 280.60 217.23 278.21 216.18 C 278.24 219.67 279.37 223.01 280.11 226.39 C 278.64 222.85 277.33 219.23 276.53 215.48 Z" />
</g>
<g id="#bdeeffff">
<path fill="#bdeeff" opacity="1.00" d=" M 193.37 223.64 C 192.55 220.33 196.51 219.27 199.01 218.99 C 204.13 218.35 208.28 222.70 209.90 227.16 C 212.78 234.96 214.74 243.13 218.38 250.65 C 221.72 257.60 228.36 262.04 232.80 268.20 C 237.99 275.22 243.42 282.35 251.05 286.90 C 261.31 294.02 274.33 293.39 285.92 296.62 C 281.34 301.88 274.58 304.19 268.10 306.11 C 261.12 308.01 253.73 306.99 246.85 305.17 C 241.52 303.85 237.17 300.32 232.19 298.19 L 232.05 298.12 C 229.28 293.02 227.45 287.48 224.78 282.32 C 218.90 270.61 212.07 259.40 205.26 248.23 C 205.76 238.35 196.21 232.32 193.37 223.64 Z" />
</g>
<g id="#494451ff">
<path fill="#494451" opacity="1.00" d=" M 280.46 227.64 C 282.97 233.69 284.92 239.97 286.13 246.42 C 283.95 240.26 281.81 234.03 280.46 227.64 Z" />
<path fill="#494451" opacity="1.00" d=" M 303.87 324.79 C 305.58 324.52 307.29 324.27 309.01 324.05 C 310.52 326.09 310.43 328.45 309.46 330.72 C 307.73 330.97 306.00 331.18 304.26 331.32 C 303.94 330.65 303.32 329.33 303.01 328.66 C 303.28 327.36 303.57 326.07 303.87 324.79 Z" />
<path fill="#494451" opacity="1.00" d=" M 296.55 393.20 C 295.64 386.37 296.95 377.93 303.14 373.88 C 298.17 379.02 296.45 386.23 296.55 393.20 Z" />
<path fill="#494451" opacity="1.00" d=" M 141.09 470.00 C 144.66 474.89 147.75 480.10 151.30 485.01 C 146.54 481.18 143.64 475.43 141.09 470.00 Z" />
<path fill="#494451" opacity="1.00" d=" M 385.62 541.94 C 385.81 540.57 386.16 539.24 386.54 537.93 C 386.55 539.30 386.57 540.68 386.59 542.06 C 387.71 542.81 388.83 543.56 389.94 544.33 C 388.46 543.59 386.97 542.87 385.62 541.94 Z" />
</g>
<g id="#37160092">
<path fill="#371600" opacity="0.57" d=" M 152.71 273.70 C 153.79 272.24 156.95 273.63 156.05 275.43 C 154.72 275.38 153.54 274.71 152.71 273.70 Z" />
</g>
<g id="#eae8edff">
<path fill="#eae8ed" opacity="1.00" d=" M 334.62 289.63 C 337.89 286.24 341.64 283.36 344.98 280.04 C 345.51 280.59 346.58 281.69 347.11 282.24 C 352.01 282.90 356.93 283.46 361.88 283.64 C 362.69 284.59 363.52 285.54 364.37 286.48 C 368.70 293.45 368.64 302.24 368.04 310.16 C 367.64 317.08 363.10 322.65 357.72 326.57 C 352.66 331.71 345.64 333.82 339.02 336.11 C 335.33 336.76 331.84 338.54 328.04 338.43 C 324.02 338.34 319.96 338.60 315.97 337.91 C 307.69 336.74 300.42 332.39 292.78 329.30 C 285.40 324.89 278.32 319.91 270.07 317.19 C 270.08 316.83 270.10 316.09 270.10 315.73 C 282.22 315.41 293.66 311.20 304.82 306.88 C 315.15 301.88 325.17 296.15 334.62 289.63 M 355.14 294.93 C 355.23 296.44 355.35 297.95 355.48 299.46 C 356.87 299.88 358.25 300.33 359.69 300.56 C 360.56 299.76 361.32 298.85 362.13 297.98 C 361.79 296.55 361.55 295.11 361.11 293.72 C 359.00 292.90 356.97 293.96 355.14 294.93 M 358.95 309.97 C 357.83 311.45 355.91 312.88 356.72 315.00 C 357.36 317.79 360.45 316.49 362.47 316.54 C 363.13 315.00 363.65 313.41 363.86 311.74 C 362.23 311.11 360.59 310.52 358.95 309.97 M 283.58 318.17 C 284.13 319.29 284.68 320.42 285.24 321.55 C 287.44 321.61 289.65 321.46 291.61 320.37 C 291.45 319.19 291.29 318.01 291.14 316.84 C 290.02 316.45 288.89 316.08 287.75 315.77 C 286.44 316.70 285.03 317.47 283.58 318.17 M 345.07 323.93 C 345.18 325.37 345.30 326.82 345.44 328.27 C 346.12 328.57 347.47 329.18 348.14 329.49 C 349.70 328.56 351.23 327.58 352.67 326.48 C 352.17 325.28 351.66 324.09 351.17 322.89 C 350.34 322.81 348.69 322.65 347.86 322.57 C 346.93 323.03 346.00 323.48 345.07 323.93 M 303.87 324.79 C 303.57 326.07 303.28 327.36 303.01 328.66 C 303.32 329.33 303.94 330.65 304.26 331.32 C 306.00 331.18 307.73 330.97 309.46 330.72 C 310.43 328.45 310.52 326.09 309.01 324.05 C 307.29 324.27 305.58 324.52 303.87 324.79 M 323.66 330.41 C 323.26 331.70 322.86 332.99 322.47 334.29 C 322.86 334.81 323.64 335.85 324.04 336.37 C 324.83 336.37 326.43 336.36 327.23 336.36 C 328.27 334.99 331.33 334.13 330.36 332.03 C 329.90 328.74 325.86 329.77 323.66 330.41 Z" />
<path fill="#eae8ed" opacity="1.00" d=" M 368.84 291.47 C 368.75 289.63 365.81 286.20 368.79 285.82 C 375.01 286.88 381.05 288.81 386.82 291.38 C 389.64 292.74 392.85 292.87 395.72 294.09 C 400.89 296.76 406.56 298.36 411.57 301.37 C 418.62 305.65 426.55 308.63 432.64 314.36 C 440.26 320.36 447.78 326.73 453.30 334.81 C 455.77 338.70 458.39 342.50 460.78 346.44 C 459.21 347.77 457.58 349.03 455.90 350.23 C 451.15 338.69 442.85 327.90 431.17 322.79 C 422.56 318.37 412.21 317.85 403.05 320.81 C 398.17 322.58 394.02 325.83 390.08 329.12 C 382.59 337.95 376.74 349.12 377.38 361.01 C 376.72 367.51 379.81 373.49 382.45 379.23 C 375.52 381.36 368.55 383.35 361.72 385.79 C 361.00 382.63 360.25 379.49 360.31 376.24 C 355.93 364.30 347.18 353.48 335.03 348.95 C 325.70 345.53 314.66 345.49 306.04 350.89 C 300.34 354.00 295.27 358.30 291.54 363.65 C 287.26 369.66 283.21 376.03 280.95 383.11 C 278.89 388.33 279.63 393.90 280.19 399.32 C 279.19 400.06 277.97 400.46 276.76 400.69 C 268.91 402.42 260.83 401.47 252.91 402.58 C 244.52 403.48 236.29 401.22 227.95 400.81 C 224.09 400.54 220.36 399.46 216.64 398.51 C 207.83 396.78 199.41 393.55 191.28 389.80 C 185.72 387.63 181.42 383.36 176.52 380.10 C 178.91 376.23 181.00 372.18 183.01 368.10 C 188.80 372.92 196.82 373.69 204.06 373.18 C 213.13 372.32 219.13 364.46 222.98 356.94 C 225.94 350.72 226.32 343.72 225.45 336.97 C 222.67 333.72 220.73 329.86 217.96 326.61 C 221.77 321.11 226.19 315.76 232.04 312.33 C 237.87 314.45 243.77 317.45 250.14 317.01 C 253.48 316.34 256.85 317.52 260.19 316.77 C 269.79 319.12 279.07 323.03 287.16 328.80 C 295.24 332.71 303.16 337.23 311.90 339.52 C 319.83 340.80 328.29 341.58 336.02 338.96 C 342.83 336.83 349.83 334.80 355.90 330.92 C 360.69 325.94 367.54 322.02 369.09 314.79 C 370.51 308.92 370.38 302.89 370.27 296.90 C 373.67 298.66 377.08 300.51 379.87 303.16 C 382.53 305.52 385.22 308.48 389.00 308.78 C 391.81 309.18 395.31 308.23 396.32 305.28 C 397.24 302.67 395.02 300.34 393.02 299.02 C 388.70 296.29 383.67 295.06 379.05 292.97 C 375.98 291.49 372.55 291.27 369.21 291.46 L 368.84 291.47 M 232.34 319.37 C 228.99 320.75 224.44 324.40 226.57 328.45 C 229.11 329.52 232.61 330.04 234.74 327.86 C 236.20 326.34 237.50 324.25 237.15 322.05 C 236.36 320.28 234.30 318.90 232.34 319.37 M 366.36 374.06 C 365.90 375.75 367.32 377.24 367.79 378.79 C 370.59 379.38 372.44 377.54 373.87 375.39 C 373.78 372.73 371.35 371.72 369.26 370.79 C 368.29 371.87 367.23 372.88 366.36 374.06 M 189.37 380.52 C 189.40 381.02 189.47 382.02 189.50 382.52 C 189.03 382.48 188.08 382.41 187.61 382.38 C 187.46 380.83 187.31 379.28 187.20 377.74 C 185.52 379.15 185.26 381.20 185.15 383.23 C 187.30 384.94 189.95 385.09 192.51 384.33 C 192.49 382.49 192.39 380.65 192.24 378.82 C 190.66 378.25 189.06 377.75 187.44 377.31 C 188.03 378.40 188.70 379.46 189.37 380.52 M 214.15 388.64 C 213.80 389.21 213.09 390.35 212.74 390.92 C 212.75 391.71 212.76 393.28 212.76 394.06 C 213.84 394.46 214.92 394.85 216.00 395.25 C 217.17 394.81 218.35 394.38 219.54 393.97 C 219.61 392.05 219.30 390.17 218.58 388.39 C 217.10 388.46 215.63 388.54 214.15 388.64 M 242.42 391.49 C 241.76 392.67 241.11 393.85 240.48 395.04 C 240.81 395.63 241.49 396.81 241.83 397.40 C 243.05 397.84 244.27 398.29 245.50 398.72 C 246.53 397.92 247.56 397.12 248.59 396.32 C 247.80 394.70 247.03 393.09 246.24 391.48 C 244.96 391.48 243.69 391.48 242.42 391.49 M 268.34 397.70 C 269.79 399.49 271.75 397.82 273.37 397.26 C 273.77 395.68 274.16 394.09 274.53 392.51 C 272.99 391.70 271.43 390.93 269.86 390.20 C 268.13 392.04 265.75 395.58 268.34 397.70 Z" />
<path fill="#eae8ed" opacity="1.00" d=" M 456.46 352.58 C 458.33 351.42 460.12 350.12 462.09 349.11 C 466.07 354.32 468.84 360.32 471.75 366.16 C 474.34 371.39 476.06 377.04 476.73 382.84 C 471.81 387.51 469.05 393.73 465.61 399.44 C 462.61 409.52 458.84 419.48 457.50 429.98 C 456.87 438.04 457.99 446.16 459.86 454.00 C 460.93 458.12 463.12 461.88 463.85 466.10 C 459.73 472.67 454.44 478.55 449.72 484.74 C 446.08 489.45 441.57 493.36 437.57 497.75 C 426.72 509.19 412.25 516.06 398.53 523.36 C 392.61 526.99 385.58 527.87 379.07 529.93 C 373.92 531.74 368.46 532.24 363.09 532.96 C 355.86 534.73 348.48 535.79 341.15 537.04 C 332.41 538.01 323.77 540.29 314.90 539.67 C 310.92 539.15 307.06 540.72 303.08 540.41 C 294.66 540.04 286.10 541.26 277.83 539.31 C 281.81 534.68 286.94 530.79 289.33 524.99 C 294.96 512.16 296.00 497.56 293.68 483.84 C 292.35 469.15 285.00 455.06 273.48 445.82 C 263.42 436.68 250.08 432.73 237.11 429.87 C 230.95 428.95 225.07 426.33 218.76 426.50 C 215.82 421.52 211.75 417.41 208.16 412.93 C 203.00 405.68 195.83 400.11 188.15 395.75 C 183.32 393.46 178.20 391.83 173.12 390.17 C 173.57 387.38 174.62 384.76 175.74 382.19 C 179.00 384.51 182.07 387.13 185.49 389.22 C 196.46 394.96 208.24 399.07 220.32 401.78 C 226.12 402.93 232.09 402.99 237.92 404.02 C 245.86 405.50 253.92 404.16 261.93 404.44 C 267.71 404.79 273.39 403.46 279.08 402.66 C 279.57 402.59 280.56 402.43 281.05 402.35 C 281.34 404.94 282.09 407.43 282.97 409.88 C 285.91 415.62 289.86 420.81 294.63 425.17 C 301.00 430.81 308.52 435.55 317.13 436.59 C 321.80 438.04 326.45 435.82 330.96 434.68 C 334.53 433.90 337.22 431.35 339.97 429.12 C 349.86 424.74 354.69 414.19 359.32 405.07 C 360.92 399.24 362.08 393.16 361.73 387.08 C 362.25 387.18 363.28 387.37 363.80 387.47 C 369.85 385.60 375.76 382.94 382.08 382.14 C 383.67 381.58 384.12 383.34 384.75 384.35 C 386.88 388.58 390.17 392.05 393.20 395.63 C 397.84 400.97 405.25 402.20 411.89 403.04 C 416.52 403.66 421.22 403.72 425.87 403.43 C 428.33 402.79 430.67 401.77 433.17 401.25 C 434.59 400.13 435.97 398.97 437.25 397.69 C 437.68 397.58 438.55 397.37 438.99 397.27 C 444.35 392.87 449.25 387.92 453.83 382.72 C 456.16 379.04 456.89 374.64 458.28 370.57 C 460.12 364.60 458.73 358.23 456.46 352.58 M 395.98 458.69 C 392.18 459.59 388.57 461.13 384.76 462.01 C 380.83 463.53 376.78 464.76 372.62 465.50 C 372.38 472.69 369.77 479.70 370.76 486.98 C 371.84 493.72 374.64 501.29 381.69 503.73 C 386.40 506.43 391.50 503.09 395.32 500.36 C 402.25 492.99 406.66 483.52 408.21 473.56 C 408.94 467.77 411.86 460.83 407.34 455.88 C 403.71 457.39 399.81 457.98 395.98 458.69 Z" />
<path fill="#eae8ed" opacity="1.00" d=" M 476.15 386.31 C 476.65 386.31 477.64 386.30 478.14 386.29 C 478.97 393.91 482.24 401.16 481.72 408.94 C 482.26 415.39 480.24 421.58 478.93 427.80 C 476.64 440.06 471.57 451.63 466.19 462.80 C 465.87 462.66 465.25 462.39 464.94 462.26 C 462.87 454.58 460.05 447.00 459.71 438.99 C 458.98 427.71 462.59 416.86 465.90 406.25 C 467.36 398.76 472.25 392.67 476.15 386.31 M 475.73 405.48 C 476.70 404.26 477.69 403.05 478.68 401.85 C 477.93 400.02 476.53 397.43 474.11 398.41 C 469.85 399.25 470.97 407.06 475.73 405.48 M 464.52 425.64 C 463.52 427.28 461.92 431.84 465.01 431.70 C 466.97 431.72 468.72 429.91 468.09 427.91 C 468.08 426.13 466.07 423.35 464.52 425.64 M 464.48 454.36 C 465.61 455.05 466.74 455.72 467.89 456.40 C 468.42 455.03 468.97 453.67 469.52 452.32 C 468.92 452.38 467.72 452.49 467.11 452.54 C 467.14 452.30 467.20 451.81 467.23 451.57 C 467.96 451.55 469.42 451.50 470.15 451.48 C 469.58 449.22 467.95 448.29 465.73 448.30 C 465.29 450.31 464.85 452.33 464.48 454.36 Z" />
<path fill="#eae8ed" opacity="1.00" d=" M 220.03 429.17 C 229.72 430.07 239.07 433.03 248.52 435.28 C 256.72 438.17 264.91 441.70 271.38 447.69 C 276.93 452.13 281.41 457.79 285.04 463.86 C 288.40 470.88 291.01 478.36 291.71 486.15 C 293.10 496.41 292.92 507.04 290.09 517.05 C 287.76 524.64 283.33 531.65 276.88 536.38 C 275.02 538.22 272.65 539.15 270.02 538.85 C 270.47 537.85 270.95 536.86 271.44 535.89 C 270.94 533.64 269.71 530.89 266.93 531.23 C 263.43 531.12 264.63 535.55 264.50 537.74 C 254.43 537.06 245.50 532.01 236.13 528.81 C 221.50 523.17 209.37 513.07 197.08 503.64 C 197.50 503.02 197.74 502.19 198.54 501.96 C 202.58 499.73 207.56 499.27 211.02 496.02 C 214.42 491.74 216.32 486.54 218.52 481.59 C 220.65 476.46 223.04 471.36 223.87 465.82 C 224.75 459.87 226.02 453.84 224.69 447.85 C 224.51 441.32 221.79 435.35 220.03 429.17 M 233.42 443.54 C 235.28 443.95 237.17 444.26 239.07 444.46 C 239.66 442.48 240.25 440.51 240.74 438.51 C 238.92 437.84 237.00 437.30 235.06 437.68 C 232.82 438.83 233.60 441.51 233.42 443.54 M 264.18 453.78 C 264.13 456.00 264.29 458.48 266.71 459.40 C 268.76 461.15 271.11 459.46 272.91 458.23 C 272.68 456.32 273.24 454.00 271.64 452.57 C 270.67 451.28 268.78 451.84 267.41 451.51 C 266.34 452.27 265.26 453.03 264.18 453.78 M 279.73 486.06 C 280.02 486.71 280.60 488.01 280.90 488.66 C 282.79 488.48 284.66 488.06 286.50 487.56 C 287.36 485.37 287.75 483.04 287.81 480.69 C 286.02 479.55 283.97 479.09 281.86 479.15 C 280.17 481.08 280.09 483.64 279.73 486.06 M 278.46 514.28 C 278.45 516.20 278.46 518.13 278.51 520.06 C 279.18 520.45 280.53 521.23 281.20 521.62 C 282.82 520.37 285.70 518.89 284.49 516.40 C 283.41 513.90 280.86 513.22 278.46 514.28 Z" />
<path fill="#eae8ed" opacity="1.00" d=" M 375.01 556.09 C 377.44 553.21 380.32 550.67 382.04 547.26 C 384.46 549.20 387.30 550.49 389.99 552.03 C 396.03 555.82 401.90 559.87 407.88 563.77 C 413.58 567.32 417.97 572.49 423.23 576.62 C 428.08 580.51 431.78 585.55 435.76 590.27 C 438.40 594.76 442.33 598.68 443.21 604.00 C 413.62 620.22 380.70 630.95 346.97 633.61 C 324.18 635.86 301.19 634.37 278.58 631.09 C 283.22 627.57 287.18 623.21 290.39 618.36 C 293.41 613.87 293.59 608.26 295.21 603.24 C 294.86 596.35 292.42 589.97 289.77 583.70 C 288.16 578.42 283.33 575.20 279.02 572.25 C 280.74 570.25 282.41 568.21 284.12 566.21 C 288.50 562.60 292.89 558.96 297.01 555.05 C 300.05 558.88 303.29 562.80 307.77 565.01 C 316.04 569.39 325.34 572.67 334.82 572.08 C 343.01 570.57 351.65 570.49 359.23 566.64 C 365.41 564.70 370.19 560.20 375.01 556.09 Z" />
</g>
<g id="#f8f99cff">
<path fill="#f8f99c" opacity="1.00" d=" M 125.47 287.34 C 129.03 285.89 133.47 287.11 135.38 290.55 C 135.92 292.88 135.85 295.55 134.52 297.62 C 132.91 300.08 129.41 299.96 126.94 299.12 C 122.31 297.08 125.03 291.08 125.47 287.34 M 127.14 295.81 C 128.35 297.83 130.87 296.83 132.74 296.77 C 132.99 295.15 133.26 293.54 133.38 291.91 C 132.07 290.49 130.27 289.66 128.67 288.64 C 127.82 290.84 125.51 293.46 127.14 295.81 Z" />
</g>
<g id="#fffff1ff">
<path fill="#fffff1" opacity="1.00" d=" M 127.14 295.81 C 125.51 293.46 127.82 290.84 128.67 288.64 C 130.27 289.66 132.07 290.49 133.38 291.91 C 133.26 293.54 132.99 295.15 132.74 296.77 C 130.87 296.83 128.35 297.83 127.14 295.81 Z" />
</g>
<g id="#fdfdfeff">
<path fill="#fdfdfe" opacity="1.00" d=" M 369.21 291.46 C 372.55 291.27 375.98 291.49 379.05 292.97 C 383.67 295.06 388.70 296.29 393.02 299.02 C 395.02 300.34 397.24 302.67 396.32 305.28 C 395.31 308.23 391.81 309.18 389.00 308.78 C 385.22 308.48 382.53 305.52 379.87 303.16 C 377.08 300.51 373.67 298.66 370.27 296.90 L 369.62 296.56 C 369.46 294.86 369.32 293.16 369.21 291.46 Z" />
</g>
<g id="#0c0b0cff">
<path fill="#0c0b0c" opacity="1.00" d=" M 355.14 294.93 C 356.97 293.96 359.00 292.90 361.11 293.72 C 361.55 295.11 361.79 296.55 362.13 297.98 C 361.32 298.85 360.56 299.76 359.69 300.56 C 358.25 300.33 356.87 299.88 355.48 299.46 C 355.35 297.95 355.23 296.44 355.14 294.93 M 356.91 295.09 C 356.81 295.94 356.60 297.63 356.49 298.48 C 357.85 298.57 359.21 298.67 360.57 298.76 C 360.61 297.67 360.66 296.58 360.71 295.50 C 359.44 295.36 358.17 295.22 356.91 295.09 Z" />
<path fill="#0c0b0c" opacity="1.00" d=" M 358.95 309.97 C 360.59 310.52 362.23 311.11 363.86 311.74 C 363.65 313.41 363.13 315.00 362.47 316.54 C 360.45 316.49 357.36 317.79 356.72 315.00 C 355.91 312.88 357.83 311.45 358.95 309.97 M 357.66 314.90 C 359.47 314.75 361.28 314.55 363.10 314.33 C 362.21 310.67 358.83 312.78 357.66 314.90 Z" />
<path fill="#0c0b0c" opacity="1.00" d=" M 323.66 330.41 C 325.86 329.77 329.90 328.74 330.36 332.03 C 331.33 334.13 328.27 334.99 327.23 336.36 C 326.43 336.36 324.83 336.37 324.04 336.37 C 323.64 335.85 322.86 334.81 322.47 334.29 C 322.86 332.99 323.26 331.70 323.66 330.41 M 324.63 331.51 C 324.51 332.76 324.40 334.01 324.30 335.27 C 326.10 334.36 327.81 333.29 329.40 332.04 C 327.81 331.84 326.22 331.66 324.63 331.51 Z" />
<path fill="#0c0b0c" opacity="1.00" d=" M 214.15 388.64 C 215.63 388.54 217.10 388.46 218.58 388.39 C 219.30 390.17 219.61 392.05 219.54 393.97 C 218.35 394.38 217.17 394.81 216.00 395.25 C 214.92 394.85 213.84 394.46 212.76 394.06 C 212.76 393.28 212.75 391.71 212.74 390.92 C 213.09 390.35 213.80 389.21 214.15 388.64 M 214.16 392.75 C 215.17 392.77 217.19 392.80 218.20 392.82 C 217.79 391.45 217.38 390.09 216.96 388.74 C 215.99 390.04 215.11 391.42 214.16 392.75 Z" />
<path fill="#0c0b0c" opacity="1.00" d=" M 216.64 398.51 C 220.36 399.46 224.09 400.54 227.95 400.81 C 236.29 401.22 244.52 403.48 252.91 402.58 C 260.83 401.47 268.91 402.42 276.76 400.69 C 277.53 401.34 278.30 402.00 279.08 402.66 C 273.39 403.46 267.71 404.79 261.93 404.44 C 253.92 404.16 245.86 405.50 237.92 404.02 C 232.09 402.99 226.12 402.93 220.32 401.78 C 220.31 401.48 220.28 400.88 220.27 400.58 C 219.02 399.93 217.86 399.18 216.64 398.51 Z" />
<path fill="#0c0b0c" opacity="1.00" d=" M 264.18 453.78 C 265.26 453.03 266.34 452.27 267.41 451.51 C 268.78 451.84 270.67 451.28 271.64 452.57 C 273.24 454.00 272.68 456.32 272.91 458.23 C 271.11 459.46 268.76 461.15 266.71 459.40 C 264.29 458.48 264.13 456.00 264.18 453.78 M 265.83 454.51 C 266.53 456.89 268.25 458.10 270.77 457.84 C 270.75 456.61 270.72 455.39 270.68 454.18 C 269.06 454.27 267.44 454.37 265.83 454.51 Z" />
</g>
<g id="#6e637fff">
<path fill="#6e637f" opacity="1.00" d=" M 356.91 295.09 C 358.17 295.22 359.44 295.36 360.71 295.50 C 360.66 296.58 360.61 297.67 360.57 298.76 C 359.21 298.67 357.85 298.57 356.49 298.48 C 356.60 297.63 356.81 295.94 356.91 295.09 Z" />
<path fill="#6e637f" opacity="1.00" d=" M 357.66 314.90 C 358.83 312.78 362.21 310.67 363.10 314.33 C 361.28 314.55 359.47 314.75 357.66 314.90 Z" />
<path fill="#6e637f" opacity="1.00" d=" M 347.23 324.13 C 348.56 324.45 349.90 324.79 351.23 325.13 C 349.86 325.88 348.49 326.63 347.11 327.37 C 347.14 326.56 347.20 324.94 347.23 324.13 Z" />
<path fill="#6e637f" opacity="1.00" d=" M 324.63 331.51 C 326.22 331.66 327.81 331.84 329.40 332.04 C 327.81 333.29 326.10 334.36 324.30 335.27 C 324.40 334.01 324.51 332.76 324.63 331.51 Z" />
<path fill="#6e637f" opacity="1.00" d=" M 368.08 376.93 C 368.63 375.74 368.20 373.49 370.02 373.37 C 371.70 372.37 371.96 375.75 370.66 376.31 C 370.02 376.46 368.73 376.78 368.08 376.93 Z" />
<path fill="#6e637f" opacity="1.00" d=" M 214.16 392.75 C 215.11 391.42 215.99 390.04 216.96 388.74 C 217.38 390.09 217.79 391.45 218.20 392.82 C 217.19 392.80 215.17 392.77 214.16 392.75 Z" />
<path fill="#6e637f" opacity="1.00" d=" M 243.96 393.29 C 245.74 392.77 246.79 395.82 244.84 396.24 C 243.03 396.74 241.88 393.65 243.96 393.29 Z" />
<path fill="#6e637f" opacity="1.00" d=" M 269.13 396.68 C 269.20 395.01 269.29 393.35 269.39 391.69 C 270.37 392.33 272.34 393.59 273.32 394.22 C 271.93 395.06 270.53 395.87 269.13 396.68 Z" />
<path fill="#6e637f" opacity="1.00" d=" M 474.37 400.52 C 474.96 400.55 476.15 400.63 476.74 400.66 C 475.92 401.78 475.38 404.54 473.47 403.43 C 473.50 402.55 472.74 400.18 474.37 400.52 Z" />
<path fill="#6e637f" opacity="1.00" d=" M 149.29 410.02 C 152.03 408.67 155.01 407.94 158.01 407.45 C 156.07 418.49 153.59 429.73 155.09 440.99 C 156.72 452.35 158.94 463.79 163.72 474.30 C 166.56 481.22 170.64 487.53 174.27 494.05 C 166.85 492.11 159.84 488.53 154.70 482.73 C 154.37 479.90 153.64 477.13 152.43 474.56 C 150.55 470.50 149.57 466.11 147.83 462.01 C 147.05 456.98 145.78 452.05 144.75 447.07 C 145.67 441.25 143.70 435.35 145.19 429.57 C 145.47 425.83 147.87 421.42 145.01 418.19 C 144.53 424.16 143.10 430.03 143.12 436.03 C 143.27 443.25 143.61 450.52 145.44 457.55 C 146.68 464.08 149.23 470.24 151.09 476.60 C 146.52 472.67 143.90 467.02 141.75 461.51 C 140.01 456.09 138.20 450.63 137.53 444.96 C 137.00 433.36 138.57 420.67 146.80 411.80 C 146.28 413.91 145.71 416.00 145.20 418.13 C 145.79 418.11 146.97 418.06 147.56 418.04 C 148.04 415.34 148.67 412.68 149.29 410.02 Z" />
<path fill="#6e637f" opacity="1.00" d=" M 160.24 408.18 C 166.71 406.06 172.28 410.95 177.61 413.81 C 175.29 421.37 176.53 429.31 176.69 437.06 C 177.71 448.56 179.03 460.17 183.02 471.08 C 184.86 476.90 188.37 482.08 189.88 488.00 C 186.28 492.16 180.25 492.58 175.14 491.60 C 161.89 471.62 154.44 447.15 157.41 423.12 C 158.03 418.09 159.18 413.13 160.24 408.18 Z" />
<path fill="#6e637f" opacity="1.00" d=" M 178.58 435.28 C 177.82 428.46 177.46 421.43 179.56 414.79 C 187.58 422.51 194.72 431.47 198.94 441.85 C 201.42 450.34 201.70 459.30 200.37 468.01 C 200.36 475.34 196.70 481.98 191.91 487.29 C 188.40 479.56 185.13 471.69 182.65 463.57 C 180.30 454.32 178.86 444.83 178.58 435.28 Z" />
<path fill="#6e637f" opacity="1.00" d=" M 235.57 440.33 C 236.52 438.81 239.15 440.39 237.93 441.88 C 236.97 443.39 234.36 441.82 235.57 440.33 Z" />
<path fill="#6e637f" opacity="1.00" d=" M 265.83 454.51 C 267.44 454.37 269.06 454.27 270.68 454.18 C 270.72 455.39 270.75 456.61 270.77 457.84 C 268.25 458.10 266.53 456.89 265.83 454.51 Z" />
<path fill="#6e637f" opacity="1.00" d=" M 281.15 515.93 C 283.10 515.25 283.54 518.52 281.80 518.99 C 279.82 519.68 279.46 516.43 281.15 515.93 Z" />
</g>
<g id="#f7d038ff">
<path fill="#f7d038" opacity="1.00" d=" M 145.51 302.28 C 149.10 302.01 153.05 299.72 156.47 301.68 C 158.43 304.82 155.03 307.67 153.07 309.82 C 147.53 314.65 139.51 313.95 132.99 311.78 C 131.94 309.72 129.48 307.36 130.82 304.91 C 135.07 301.91 140.68 303.39 145.51 302.28 Z" />
</g>
<g id="#48434fff">
<path fill="#48434f" opacity="1.00" d=" M 287.75 315.77 C 288.89 316.08 290.02 316.45 291.14 316.84 C 290.82 317.67 290.17 319.32 289.85 320.14 C 289.15 320.14 287.75 320.14 287.05 320.14 C 287.27 318.68 287.50 317.22 287.75 315.77 Z" />
</g>
<g id="#fdfcfdff">
<path fill="#fdfcfd" opacity="1.00" d=" M 232.34 319.37 C 234.30 318.90 236.36 320.28 237.15 322.05 C 237.50 324.25 236.20 326.34 234.74 327.86 C 232.61 330.04 229.11 329.52 226.57 328.45 C 224.44 324.40 228.99 320.75 232.34 319.37 Z" />
</g>
<g id="#060606ff">
<path fill="#060606" opacity="1.00" d=" M 345.07 323.93 C 346.00 323.48 346.93 323.03 347.86 322.57 C 348.69 322.65 350.34 322.81 351.17 322.89 C 351.66 324.09 352.17 325.28 352.67 326.48 C 351.23 327.58 349.70 328.56 348.14 329.49 C 347.47 329.18 346.12 328.57 345.44 328.27 C 345.30 326.82 345.18 325.37 345.07 323.93 M 347.23 324.13 C 347.20 324.94 347.14 326.56 347.11 327.37 C 348.49 326.63 349.86 325.88 351.23 325.13 C 349.90 324.79 348.56 324.45 347.23 324.13 Z" />
<path fill="#060606" opacity="1.00" d=" M 242.42 391.49 C 243.69 391.48 244.96 391.48 246.24 391.48 C 247.03 393.09 247.80 394.70 248.59 396.32 C 247.56 397.12 246.53 397.92 245.50 398.72 C 244.27 398.29 243.05 397.84 241.83 397.40 C 241.49 396.81 240.81 395.63 240.48 395.04 C 241.11 393.85 241.76 392.67 242.42 391.49 M 243.96 393.29 C 241.88 393.65 243.03 396.74 244.84 396.24 C 246.79 395.82 245.74 392.77 243.96 393.29 Z" />
<path fill="#060606" opacity="1.00" d=" M 268.34 397.70 C 265.75 395.58 268.13 392.04 269.86 390.20 C 271.43 390.93 272.99 391.70 274.53 392.51 C 274.16 394.09 273.77 395.68 273.37 397.26 C 271.75 397.82 269.79 399.49 268.34 397.70 M 269.13 396.68 C 270.53 395.87 271.93 395.06 273.32 394.22 C 272.34 393.59 270.37 392.33 269.39 391.69 C 269.29 393.35 269.20 395.01 269.13 396.68 Z" />
<path fill="#060606" opacity="1.00" d=" M 475.73 405.48 C 470.97 407.06 469.85 399.25 474.11 398.41 C 476.53 397.43 477.93 400.02 478.68 401.85 C 477.69 403.05 476.70 404.26 475.73 405.48 M 474.37 400.52 C 472.74 400.18 473.50 402.55 473.47 403.43 C 475.38 404.54 475.92 401.78 476.74 400.66 C 476.15 400.63 474.96 400.55 474.37 400.52 Z" />
<path fill="#060606" opacity="1.00" d=" M 464.48 454.36 C 464.85 452.33 465.29 450.31 465.73 448.30 C 467.95 448.29 469.58 449.22 470.15 451.48 C 469.42 451.50 467.96 451.55 467.23 451.57 C 467.20 451.81 467.14 452.30 467.11 452.54 C 467.72 452.49 468.92 452.38 469.52 452.32 C 468.97 453.67 468.42 455.03 467.89 456.40 C 466.74 455.72 465.61 455.05 464.48 454.36 Z" />
<path fill="#060606" opacity="1.00" d=" M 291.71 486.15 C 292.37 485.37 293.02 484.60 293.68 483.84 C 296.00 497.56 294.96 512.16 289.33 524.99 C 286.94 530.79 281.81 534.68 277.83 539.31 C 277.52 538.32 277.19 537.34 276.88 536.38 C 283.33 531.65 287.76 524.64 290.09 517.05 C 292.92 507.04 293.10 496.41 291.71 486.15 Z" />
</g>
<g id="#910106ff">
<path fill="#910106" opacity="1.00" d=" M 393.89 355.44 C 396.34 351.98 398.72 346.80 403.74 347.15 C 407.40 348.11 409.71 351.47 412.45 353.86 C 412.56 358.67 413.73 364.27 410.51 368.36 C 408.42 371.03 405.72 373.99 402.03 373.86 C 397.77 374.27 394.78 370.51 392.83 367.24 C 390.57 363.46 393.07 359.26 393.89 355.44 Z" />
<path fill="#910106" opacity="1.00" d=" M 303.14 373.88 C 307.71 373.16 312.71 372.86 316.97 374.98 C 319.68 377.08 320.10 380.88 320.11 384.07 C 319.15 390.41 315.19 396.91 308.71 398.74 C 303.91 400.57 299.10 397.05 296.55 393.20 C 296.45 386.23 298.17 379.02 303.14 373.88 Z" />
</g>
<g id="#020203ff">
<path fill="#020203" opacity="1.00" d=" M 366.36 374.06 C 367.23 372.88 368.29 371.87 369.26 370.79 C 371.35 371.72 373.78 372.73 373.87 375.39 C 372.44 377.54 370.59 379.38 367.79 378.79 C 367.32 377.24 365.90 375.75 366.36 374.06 M 368.08 376.93 C 368.73 376.78 370.02 376.46 370.66 376.31 C 371.96 375.75 371.70 372.37 370.02 373.37 C 368.20 373.49 368.63 375.74 368.08 376.93 Z" />
<path fill="#020203" opacity="1.00" d=" M 189.37 380.52 C 188.70 379.46 188.03 378.40 187.44 377.31 C 189.06 377.75 190.66 378.25 192.24 378.82 C 192.39 380.65 192.49 382.49 192.51 384.33 C 189.95 385.09 187.30 384.94 185.15 383.23 C 185.26 381.20 185.52 379.15 187.20 377.74 C 187.31 379.28 187.46 380.83 187.61 382.38 C 188.08 382.41 189.03 382.48 189.50 382.52 C 189.47 382.02 189.40 381.02 189.37 380.52 Z" />
<path fill="#020203" opacity="1.00" d=" M 233.42 443.54 C 233.60 441.51 232.82 438.83 235.06 437.68 C 237.00 437.30 238.92 437.84 240.74 438.51 C 240.25 440.51 239.66 442.48 239.07 444.46 C 237.17 444.26 235.28 443.95 233.42 443.54 M 235.57 440.33 C 234.36 441.82 236.97 443.39 237.93 441.88 C 239.15 440.39 236.52 438.81 235.57 440.33 Z" />
<path fill="#020203" opacity="1.00" d=" M 395.98 458.69 C 399.81 457.98 403.71 457.39 407.34 455.88 C 411.86 460.83 408.94 467.77 408.21 473.56 C 406.66 483.52 402.25 492.99 395.32 500.36 C 391.50 503.09 386.40 506.43 381.69 503.73 C 374.64 501.29 371.84 493.72 370.76 486.98 C 369.77 479.70 372.38 472.69 372.62 465.50 C 376.78 464.76 380.83 463.53 384.76 462.01 C 388.57 461.13 392.18 459.59 395.98 458.69 M 401.06 459.82 C 399.71 460.21 398.36 460.59 397.02 460.97 C 389.47 462.54 382.34 465.66 374.85 467.44 C 374.67 471.98 373.54 476.43 373.51 480.99 C 372.97 486.59 374.57 492.12 376.90 497.16 C 379.63 499.78 382.91 501.85 386.65 502.66 C 390.04 501.17 393.79 499.85 395.87 496.55 L 396.19 496.49 C 397.50 494.35 398.91 492.27 400.23 490.13 C 404.95 480.73 407.13 470.12 407.45 459.67 C 405.32 459.42 403.15 459.28 401.06 459.82 Z" />
<path fill="#020203" opacity="1.00" d=" M 278.46 514.28 C 280.86 513.22 283.41 513.90 284.49 516.40 C 285.70 518.89 282.82 520.37 281.20 521.62 C 280.53 521.23 279.18 520.45 278.51 520.06 C 278.46 518.13 278.45 516.20 278.46 514.28 M 281.15 515.93 C 279.46 516.43 279.82 519.68 281.80 518.99 C 283.54 518.52 283.10 515.25 281.15 515.93 Z" />
</g>
<g id="#fbfcc5ff">
<path fill="#fbfcc5" opacity="1.00" d=" M 166.04 396.47 C 168.86 396.61 172.09 395.90 174.53 397.72 C 174.31 399.42 174.01 401.12 173.64 402.80 C 171.41 402.62 169.16 402.55 166.96 402.15 C 166.43 400.30 166.35 398.35 166.04 396.47 Z" />
</g>
<g id="#2f2a37ff">
<path fill="#2f2a37" opacity="1.00" d=" M 464.52 425.64 C 466.07 423.35 468.08 426.13 468.09 427.91 C 468.72 429.91 466.97 431.72 465.01 431.70 C 461.92 431.84 463.52 427.28 464.52 425.64 Z" />
</g>
<g id="#f7ce39ff">
<path fill="#f7ce39" opacity="1.00" d=" M 204.32 472.65 L 204.80 472.80 C 206.34 474.06 208.70 474.85 209.15 477.03 C 209.85 480.44 210.30 484.87 207.19 487.27 C 202.91 491.62 196.52 491.81 190.84 492.30 C 191.86 491.10 192.97 489.99 194.15 488.94 C 198.96 484.48 201.75 478.56 204.32 472.65 Z" />
<path fill="#f7ce39" opacity="1.00" d=" M 369.84 539.06 C 370.83 538.21 371.84 537.37 372.86 536.56 C 373.43 539.59 374.28 543.22 371.74 545.64 C 366.20 551.50 358.39 554.81 350.65 556.65 C 339.63 559.29 328.40 556.72 317.41 555.27 C 310.91 554.50 306.00 549.49 299.59 548.32 C 300.39 549.80 301.20 551.31 302.09 552.76 C 301.21 552.20 300.34 551.65 299.46 551.11 C 299.08 549.91 298.72 548.71 298.37 547.52 C 307.25 547.56 316.09 546.43 324.97 546.86 C 329.74 546.12 334.59 546.06 339.32 545.04 C 344.79 543.81 350.47 543.81 355.91 542.37 C 360.57 541.33 365.22 540.25 369.84 539.06 Z" />
</g>
<g id="#5e546cff">
<path fill="#5e546c" opacity="1.00" d=" M 283.04 481.69 C 284.92 480.86 287.56 481.51 286.27 484.04 C 285.74 486.18 283.03 486.35 281.44 487.35 C 281.85 485.43 282.20 483.47 283.04 481.69 Z" />
</g>
<g id="#733403ff">
<path fill="#733403" opacity="1.00" d=" M 180.20 495.98 C 179.09 494.12 181.97 494.49 182.85 494.94 C 184.03 495.45 185.20 496.00 186.40 496.50 C 184.34 496.48 182.09 497.03 180.20 495.98 Z" />
</g>
<g id="#2f2e2fbd">
<path fill="#2f2e2f" opacity="0.74" d=" M 406.66 525.51 C 407.10 524.29 408.41 523.89 409.58 523.77 C 410.23 525.25 407.69 526.63 406.66 525.51 Z" />
</g>
<g id="#554c62ff">
<path fill="#554c62" opacity="1.00" d=" M 265.25 533.32 C 266.90 533.79 270.35 533.05 269.35 535.92 C 268.36 536.39 267.36 536.84 266.35 537.26 C 266.07 536.27 265.52 534.30 265.25 533.32 Z" />
</g>
<g id="#f3f45bff">
<path fill="#f3f45b" opacity="1.00" d=" M 236.15 588.25 C 240.00 580.83 247.13 573.67 255.85 573.51 C 258.76 575.69 262.10 577.86 263.53 581.36 C 265.23 586.78 263.26 593.21 258.63 596.57 C 254.12 599.66 248.04 599.48 242.97 598.01 C 238.81 596.83 237.22 592.52 236.30 588.74 L 236.15 588.25 M 247.28 578.41 C 242.41 580.19 240.13 586.40 241.82 591.11 C 246.39 598.07 259.68 594.61 259.63 586.00 C 259.88 579.93 252.52 575.95 247.28 578.41 Z" />
</g>
<g id="#f9f9a4ff">
<path fill="#f9f9a4" opacity="1.00" d=" M 247.28 578.41 C 252.52 575.95 259.88 579.93 259.63 586.00 C 259.68 594.61 246.39 598.07 241.82 591.11 C 240.13 586.40 242.41 580.19 247.28 578.41 M 245.59 587.96 C 247.53 592.43 255.00 590.73 255.35 586.05 C 255.29 583.24 251.91 582.55 250.00 581.27 C 248.24 583.21 245.13 584.90 245.59 587.96 Z" />
</g>
<g id="#fdfdddff">
<path fill="#fdfddd" opacity="1.00" d=" M 245.59 587.96 C 245.13 584.90 248.24 583.21 250.00 581.27 C 251.91 582.55 255.29 583.24 255.35 586.05 C 255.00 590.73 247.53 592.43 245.59 587.96 Z" />
</g>
<g id="#f7cf39ff">
<path fill="#f7cf39" opacity="1.00" d=" M 438.73 585.79 C 441.80 585.42 445.37 583.88 448.15 586.00 C 449.97 590.47 444.65 593.57 442.31 596.63 C 441.15 594.40 439.80 592.19 439.31 589.70 C 439.09 588.39 438.90 587.09 438.73 585.79 Z" />
</g>
<g id="#f7cd39ff">
<path fill="#f7cd39" opacity="1.00" d=" M 233.56 602.56 C 236.58 602.31 240.16 600.93 242.75 603.19 C 247.15 606.38 249.00 612.57 254.34 614.46 C 261.89 615.76 269.51 613.48 277.11 614.10 C 277.86 620.89 272.37 625.94 266.99 629.01 C 259.04 629.91 250.42 628.15 244.21 622.85 C 243.82 621.92 243.19 621.21 242.33 620.72 C 236.52 616.51 234.46 609.33 233.56 602.56 Z" />
</g>
<g id="#333109d7">
<path fill="#333109" opacity="0.84" d=" M 242.33 620.72 C 243.19 621.21 243.82 621.92 244.21 622.85 C 242.39 623.18 241.77 622.48 242.33 620.72 Z" />
</g>
</svg>
