<svg width="128" height="128" viewBox="0 0 128 128" fill="none" xmlns="http://www.w3.org/2000/svg"><path d="M102.8 52.8C102.8 31.4 85.4001 14 64.0001 14C42.6001 14 25.2001 31.4 25.2001 52.8C25.2001 53.5 25.2001 54.2 25.3001 54.8C26.4001 76.6 44.1001 102.5 61.5001 113.3C62.3001 113.8 63.2001 114 64.1001 114C65.0001 114 65.8001 113.8 66.6001 113.3C84.0001 102.6 101.7 76.6 102.8 54.8C102.8 54.1 102.8 53.5 102.8 52.8Z" fill="#FBBF24"/><g opacity="0.2"><path opacity="0.2" d="M64 14C62.9 14 61.7 14.1 60.6 14.2C80.4 15.9 96 32.5 96 52.8C96 53.5 96 54.1 95.9 54.8C94.9 76.2 77.7 101.7 60.6 112.7C60.9 112.9 61.2 113.1 61.5 113.3C62.3 113.8 63.2 114 64.1 114C65 114 65.8 113.8 66.6 113.3C84 102.6 101.7 76.6 102.8 54.8C102.8 54.1 102.9 53.5 102.9 52.8C102.8 31.4 85.4 14 64 14Z" fill="#62345B"/></g><path d="M64 115.2C62.9 115.2 61.7 114.9 60.8 114.3C44 104 25.1 78.3001 24 54.9001C24 54.2001 23.9 53.5 23.9 52.8C23.9 30.7 41.9 12.8 63.9 12.8C85.9 12.8 103.9 30.8 103.9 52.8C103.9 53.5 103.9 54.2001 103.8 54.9001C102.7 78.3001 83.8 104 67 114.4C66.3 114.9 65.2 115.2 64 115.2C64 115.2 64.1 115.2 64 115.2ZM64 15.2C43.3 15.2 26.5 32 26.5 52.7001C26.5 53.4001 26.5 54.0001 26.5 54.7001C27.6 76.6 45.8 102.1 62.1 112.2C62.6 112.5 63.3 112.7 64 112.7V113.9V112.6C64.7 112.6 65.3 112.4 65.8 112.1C82.1 102 100.3 76.5 101.4 54.6C101.4 53.9 101.5 53.3 101.5 52.6C101.5 32.1 84.7 15.2 64 15.2Z" fill="#62345B"/><path d="M64 83.4C80.8999 83.4 94.6 69.6999 94.6 52.7999C94.6 35.9 80.8999 22.2 64 22.2C47.1001 22.2 33.4 35.9 33.4 52.7999C33.4 69.6999 47.1001 83.4 64 83.4Z" fill="white"/><path d="M69.2 53.3001C68.4 52.8001 67.4 52.3001 66.4 52.0001C65.5 51.7001 64.6 51.5001 63.7 51.2001C62.9 51.0001 62.1 50.7001 61.3 50.4001C60.7 50.2001 60.1 49.8001 59.7 49.4001C59.3 49.1001 59 48.6001 58.7 48.0001C58.5 47.6001 58.3 46.9001 58.3 45.7001C58.3 45.1001 58.4 44.4001 58.6 43.8001C58.8 43.2001 59.1 42.7001 59.6 42.2001C60 41.7001 60.6 41.4001 61.3 41.1001C62 40.8001 62.9 40.6001 63.9 40.6001C64.9 40.6001 65.8 40.8001 66.5 41.1001C67.2 41.4001 67.7 41.8001 68.1 42.3001C68.5 42.8001 68.9 43.4001 69.1 44.1001C69.3 44.9001 70.2 45.3001 70.9 45.0001C71.7 44.8001 72.1 43.9001 71.8 43.2001C71.5 42.2001 71 41.2001 70.3 40.4001C69.6 39.6001 68.7 38.9001 67.7 38.4001C67 38.1001 66.2 37.9001 65.4 37.8001V36.8001C65.4 36.0001 64.8 35.4001 64 35.4001C63.2 35.4001 62.6 36.0001 62.6 36.8001V37.8001C61.8 37.9001 61 38.1001 60.3 38.4001C59.2 38.8001 58.3 39.5001 57.6 40.2001C56.9 40.9001 56.4 41.8001 56 42.7001C55.7 43.6001 55.5 44.6001 55.5 45.6001C55.5 47.0001 55.7 48.2001 56.1 49.1001C56.5 50.0001 57.1 50.8001 57.8 51.4001C58.5 52.0001 59.3 52.5001 60.2 52.9001C61.1 53.2001 62 53.5001 62.9 53.8001C63.8 54.0001 64.7 54.3001 65.5 54.6001C66.3 54.8001 67 55.2001 67.6 55.6001C68.2 56.0001 68.7 56.5001 69.1 57.1001C69.5 57.7001 69.7 58.6001 69.7 59.6001C69.7 60.4001 69.6 61.1001 69.4 61.8001C69.2 62.5001 68.9 63.0001 68.4 63.5001C68 64.0001 67.4 64.3001 66.8 64.6001C66.1 64.9001 65.3 65.0001 64.4 65.0001C63.6 65.0001 62.8 64.9001 62.1 64.7001C61.4 64.5001 60.8 64.1001 60.3 63.6001C59.8 63.1001 59.3 62.4001 58.9 61.6001C58.6 60.9001 57.7 60.5001 57 60.9001C56.3 61.2001 55.9 62.1001 56.3 62.8001C56.8 64.0001 57.5 65.0001 58.4 65.8001C59.2 66.6001 60.2 67.1001 61.3 67.5001C61.7 67.6001 62.2 67.7001 62.6 67.8001V69.0001C62.6 69.8001 63.2 70.4001 64 70.4001C64.8 70.4001 65.4 69.8001 65.4 69.0001V68.0001C66.3 67.9001 67.1 67.7001 67.9 67.4001C69 67.0001 69.9 66.3001 70.6 65.5001C71.3 64.7001 71.8 63.8001 72.2 62.7001C72.5 61.7001 72.7 60.7001 72.7 59.6001C72.7 58.0001 72.4 56.7001 71.7 55.6001C71 54.8001 70.2 53.9001 69.2 53.3001Z" fill="#62345B"/><path d="M64 84.7001C46.4 84.7001 32.1 70.4001 32.1 52.8001C32.1 35.2001 46.4 20.9001 64 20.9001C81.6 20.9001 95.9 35.2001 95.9 52.8001C95.9 70.4001 81.6 84.7001 64 84.7001ZM64 23.4001C47.8 23.4001 34.6 36.6001 34.6 52.8001C34.6 69.0001 47.8 82.2001 64 82.2001C80.2 82.2001 93.4 69.0001 93.4 52.8001C93.4 36.6001 80.2 23.4001 64 23.4001Z" fill="#62345B"/></svg>