<svg width="43" height="36" viewBox="0 0 43 36" fill="none" xmlns="http://www.w3.org/2000/svg">
<path d="M33.019 33.9377H9.21895C6.41895 33.9377 4.21895 31.7377 4.21895 28.9377V16.2377H3.21895C2.11895 16.2377 1.21895 15.3377 1.21895 14.2377V13.2377C1.01895 12.0377 1.91895 10.9377 3.21895 10.9377H38.919C40.119 10.9377 41.119 12.0377 40.919 13.2377V14.2377C40.919 15.3377 40.019 16.2377 38.919 16.2377H37.919V28.9377C38.019 31.7377 35.719 33.9377 33.019 33.9377Z" fill="#EE7F8F"/>
<path d="M33.019 35.2377H9.21895C7.51895 35.2377 6.01895 34.5377 4.81895 33.4377C3.61895 32.2377 3.01895 30.6377 3.01895 29.0377V17.6377C1.31895 17.5377 0.0189501 16.1377 0.0189501 14.4377V13.5377C-0.0810499 12.6377 0.218949 11.7377 0.818949 11.0377C1.41895 10.3377 2.31895 9.93774 3.31895 9.93774H39.019C40.019 9.93774 40.919 10.3377 41.519 11.0377C42.119 11.7377 42.4189 12.6377 42.3189 13.5377V14.4377C42.3189 16.1377 41.0189 17.5377 39.3189 17.6377V29.0377C39.3189 30.7377 38.719 32.2377 37.519 33.4377C36.219 34.5377 34.619 35.2377 33.019 35.2377ZM3.21895 12.2377C2.91895 12.2377 2.71895 12.4377 2.61895 12.5377C2.51895 12.6377 2.41895 12.8377 2.41895 13.1377C2.41895 13.2377 2.41895 13.2377 2.41895 13.3377V14.3377C2.41895 14.7377 2.71895 15.1377 3.21895 15.1377H4.21895C4.51895 15.1377 4.81895 15.2377 5.11895 15.5377C5.31895 15.7377 5.51895 16.1377 5.51895 16.4377V29.1377C5.51895 30.1377 5.91895 31.0377 6.61895 31.8377C7.31895 32.5377 8.31895 32.9377 9.31895 32.9377H33.019C34.019 32.9377 34.9189 32.5377 35.7189 31.8377C36.5189 31.1377 36.8189 30.1377 36.8189 29.1377V16.4377C36.8189 16.1377 36.9189 15.7377 37.2189 15.5377C37.4189 15.3377 37.8189 15.1377 38.1189 15.1377H39.1189C39.5189 15.1377 39.919 14.8377 39.919 14.3377V13.3377C39.919 13.2377 39.919 13.2377 39.919 13.1377C39.919 12.8377 39.8189 12.6377 39.7189 12.5377C39.6189 12.4377 39.4189 12.2377 39.1189 12.2377H3.21895Z" fill="#62345B"/>
<path d="M21.1189 30.2378C20.4189 30.2378 19.8189 29.6378 19.9189 28.9378V21.2378C19.9189 20.5378 20.5189 20.0378 21.1189 20.0378C21.8189 20.0378 22.3189 20.6378 22.3189 21.3378V29.0378C22.3189 29.6378 21.8189 30.2378 21.1189 30.2378Z" fill="#62345B"/>
<path d="M12.119 30.2378C11.419 30.2378 10.819 29.6378 10.919 28.9378V21.2378C10.919 20.5378 11.519 20.0378 12.119 20.0378C12.819 20.0378 13.319 20.6378 13.319 21.3378V29.0378C13.319 29.6378 12.819 30.2378 12.119 30.2378Z" fill="#62345B"/>
<path d="M30.119 30.2378C29.419 30.2378 28.819 29.6378 28.919 28.9378V21.2378C28.919 20.5378 29.519 20.0378 30.119 20.0378C30.819 20.0378 31.319 20.6378 31.319 21.3378V29.0378C31.319 29.6378 30.819 30.2378 30.119 30.2378Z" fill="#62345B"/>
<path d="M12.119 12.2378C11.919 12.2378 11.719 12.2378 11.519 12.1378C10.919 11.8378 10.619 11.0378 11.019 10.4378L16.019 0.737796C16.319 0.137796 17.119 -0.162204 17.719 0.237796C18.319 0.537796 18.619 1.3378 18.219 1.9378L13.219 11.6378C13.019 11.9378 12.519 12.2378 12.119 12.2378Z" fill="#62345B"/>
<path d="M30.1189 12.2378C29.6189 12.2378 29.2189 12.0378 29.0189 11.5378L24.0189 1.83783C23.7189 1.23783 23.9189 0.437829 24.5189 0.137829C25.1189 -0.162171 25.9189 0.0378293 26.2189 0.637829L31.2189 10.3378C31.5189 10.9378 31.3189 11.7378 30.7189 12.0378C30.5189 12.1378 30.3189 12.2378 30.1189 12.2378Z" fill="#62345B"/>
<path d="M37.919 17.5379H4.31896C3.61896 17.5379 3.11896 16.9379 3.11896 16.3379C3.11896 15.7379 3.71896 15.1379 4.31896 15.1379H38.019C38.719 15.1379 39.219 15.7379 39.219 16.3379C39.219 16.9379 38.619 17.5379 37.919 17.5379Z" fill="#62345B"/>
</svg>
