<svg enable-background="new 0 0 128 128" id="Слой_1" version="1.1" viewBox="0 0 128 128" xml:space="preserve" xmlns="http://www.w3.org/2000/svg" xmlns:xlink="http://www.w3.org/1999/xlink"><g><g><path d="M102.8,52.8C102.8,31.4,85.4,14,64,14S25.2,31.4,25.2,52.8c0,0.7,0,1.4,0.1,2    c1.1,21.8,18.8,47.7,36.2,58.5c0.8,0.5,1.7,0.7,2.6,0.7l0,0c0.9,0,1.7-0.2,2.5-0.7c17.4-10.7,35.1-36.7,36.2-58.5    C102.8,54.1,102.8,53.5,102.8,52.8z" fill="#ED9E77"/></g><g opacity="0.2"><path d="M64,14c-1.1,0-2.3,0.1-3.4,0.2C80.4,15.9,96,32.5,96,52.8c0,0.7,0,1.3-0.1,2c-1,21.4-18.2,46.9-35.3,57.9    c0.3,0.2,0.6,0.4,0.9,0.6c0.8,0.5,1.7,0.7,2.6,0.7c0.9,0,1.7-0.2,2.5-0.7c17.4-10.7,35.1-36.7,36.2-58.5c0-0.7,0.1-1.3,0.1-2    C102.8,31.4,85.4,14,64,14z" fill="#62345B"/></g><g><path d="M64,115.2c-1.1,0-2.3-0.3-3.2-0.9C44,104,25.1,78.3,24,54.9c0-0.7-0.1-1.4-0.1-2.1c0-22.1,18-40,40-40    s40,18,40,40c0,0.7,0,1.4-0.1,2.1c-1.1,23.4-20,49.1-36.8,59.5C66.3,114.9,65.2,115.2,64,115.2C64.1,115.2,64,115.2,64,115.2z     M64,15.2c-20.7,0-37.5,16.8-37.5,37.5c0,0.7,0,1.3,0.1,2c1.1,21.9,19.3,47.4,35.6,57.5c0.5,0.3,1.2,0.5,1.9,0.5v1.2l0-1.3    c0.7,0,1.3-0.2,1.8-0.5c16.3-10.1,34.5-35.6,35.6-57.5c0-0.7,0.1-1.3,0.1-2C101.5,32.1,84.7,15.2,64,15.2z" fill="#62345B"/></g><g><circle cx="64" cy="52.8" fill="#FFFFFF" r="30.6"/></g><g><path d="M65.1,33.6l4.7,11.3c0.2,0.4,0.5,0.7,1,0.7l12.2,1c1,0.1,1.4,1.3,0.7,2l-9.3,8c-0.3,0.3-0.5,0.7-0.4,1.1    l2.8,11.9c0.2,1-0.8,1.8-1.7,1.2l-10.5-6.4c-0.4-0.2-0.8-0.2-1.2,0l-10.5,6.4c-0.9,0.5-1.9-0.3-1.7-1.2l2.8-11.9    c0.1-0.4,0-0.9-0.4-1.1l-9.3-8c-0.8-0.7-0.4-1.9,0.7-2l12.2-1c0.4,0,0.8-0.3,1-0.7l4.7-11.3C63.3,32.7,64.7,32.7,65.1,33.6z" fill="#F1EE8D"/></g><g><path d="M75.7,72.3c-0.4,0-0.9-0.1-1.2-0.4L64,65.6L53.6,72c-1,0.6-2.4,0.4-3.1-0.6c-0.5-0.6-0.6-1.3-0.4-2    l2.8-11.9l-9.3-7.9c-0.7-0.6-1-1.6-0.7-2.6c0.3-0.9,1.1-1.6,2.1-1.6l12.2-1l4.7-11.3c0.4-0.9,1.2-1.5,2.2-1.5s1.8,0.6,2.2,1.5    l4.7,11.3l12.2,1c1,0.1,1.8,0.7,2.1,1.6c0.3,0.9,0,1.9-0.7,2.6l-9.3,7.9L78,69.4c0.2,0.7,0,1.5-0.4,2C77.1,72,76.4,72.3,75.7,72.3    z M64,63.1c0.4,0,0.9,0.1,1.2,0.4l10.2,6.3L72.7,58c-0.2-0.9,0.1-1.8,0.8-2.4l9.1-7.8l-12-1c-0.9-0.1-1.7-0.6-2-1.5L64,34.4    l-4.6,11.1c-0.3,0.8-1.1,1.4-2,1.5l-12,1l9.1,7.8c0.7,0.6,1,1.5,0.8,2.4l-2.8,11.7l10.2-6.3C63.1,63.2,63.6,63.1,64,63.1z" fill="#62345B"/></g><g><path d="M64,84.7c-17.6,0-31.9-14.3-31.9-31.9S46.4,20.9,64,20.9s31.9,14.3,31.9,31.9S81.6,84.7,64,84.7z M64,23.4    c-16.2,0-29.4,13.2-29.4,29.4S47.8,82.2,64,82.2S93.4,69,93.4,52.8S80.2,23.4,64,23.4z" fill="#62345B"/></g></g></svg>