<svg enable-background="new 0 0 128 128" id="Слой_1" version="1.1" viewBox="0 0 128 128" xml:space="preserve" xmlns="http://www.w3.org/2000/svg" xmlns:xlink="http://www.w3.org/1999/xlink"><g><g><path d="M102.8,52.8C102.8,31.4,85.4,14,64,14S25.2,31.4,25.2,52.8c0,0.7,0,1.4,0.1,2    c1.1,21.8,18.8,47.7,36.2,58.5c0.8,0.5,1.7,0.7,2.6,0.7l0,0c0.9,0,1.7-0.2,2.5-0.7c17.4-10.7,35.1-36.7,36.2-58.5    C102.8,54.1,102.8,53.5,102.8,52.8z" fill="#4FC2BD"/></g><g opacity="0.2"><path d="M64,14c-1.1,0-2.3,0.1-3.4,0.2C80.4,15.9,96,32.5,96,52.8c0,0.7,0,1.3-0.1,2c-1,21.4-18.2,46.9-35.3,57.9    c0.3,0.2,0.6,0.4,0.9,0.6c0.8,0.5,1.7,0.7,2.6,0.7c0.9,0,1.7-0.2,2.5-0.7c17.4-10.7,35.1-36.7,36.2-58.5c0-0.7,0.1-1.3,0.1-2    C102.8,31.4,85.4,14,64,14z" fill="#62345B"/></g><g><path d="M64,115.2c-1.1,0-2.3-0.3-3.2-0.9C44,104,25.1,78.3,24,54.9c0-0.7-0.1-1.4-0.1-2.1c0-22.1,18-40,40-40    s40,18,40,40c0,0.7,0,1.4-0.1,2.1c-1.1,23.4-20,49.1-36.8,59.5C66.3,114.9,65.2,115.2,64,115.2C64.1,115.2,64,115.2,64,115.2z     M64,15.2c-20.7,0-37.5,16.8-37.5,37.5c0,0.7,0,1.3,0.1,2c1.1,21.9,19.3,47.4,35.6,57.5c0.5,0.3,1.2,0.5,1.9,0.5v1.2l0-1.3    c0.7,0,1.3-0.2,1.8-0.5c16.3-10.1,34.5-35.6,35.6-57.5c0-0.7,0.1-1.3,0.1-2C101.5,32.1,84.7,15.2,64,15.2z" fill="#62345B"/></g><g><circle cx="64" cy="52.8" fill="#FFFFFF" r="30.6"/></g><g><path d="M75.9,68.3H52.1c-2.8,0-5-2.2-5-5l0-12.7h-1c-1.1,0-2-0.9-2-2v-1c-0.2-1.2,0.7-2.3,2-2.3h35.7    c1.2,0,2.2,1.1,2,2.3v1c0,1.1-0.9,2-2,2h-1l0,12.7C80.9,66.1,78.6,68.3,75.9,68.3z" fill="#EE7F8F"/></g><g><path d="M75.9,69.6H52.1c-1.7,0-3.2-0.7-4.4-1.8c-1.2-1.2-1.8-2.8-1.8-4.4l0-11.4c-1.7-0.1-3-1.5-3-3.2v-0.9    c-0.1-0.9,0.2-1.8,0.8-2.5c0.6-0.7,1.5-1.1,2.5-1.1h35.7c1,0,1.9,0.4,2.5,1.1c0.6,0.7,0.9,1.6,0.8,2.5v0.9c0,1.7-1.3,3.1-3,3.2    l0,11.4c0,1.7-0.6,3.2-1.8,4.4C79.1,68.9,77.5,69.6,75.9,69.6z M46.1,46.6c-0.3,0-0.5,0.2-0.6,0.3c-0.1,0.1-0.2,0.3-0.2,0.6    c0,0.1,0,0.1,0,0.2v1c0,0.4,0.3,0.8,0.8,0.8h1c0.3,0,0.6,0.1,0.9,0.4c0.2,0.2,0.4,0.6,0.4,0.9l0,12.7c0,1,0.4,1.9,1.1,2.7    c0.7,0.7,1.7,1.1,2.7,1.1h23.7c1,0,1.9-0.4,2.7-1.1s1.1-1.7,1.1-2.7l0-12.7c0-0.3,0.1-0.7,0.4-0.9c0.2-0.2,0.6-0.4,0.9-0.4h1    c0.4,0,0.8-0.3,0.8-0.8v-1c0-0.1,0-0.1,0-0.2c0-0.3-0.1-0.5-0.2-0.6c-0.1-0.1-0.3-0.3-0.6-0.3H46.1z" fill="#62345B"/></g><g><path d="M64,64.6C64,64.6,64,64.6,64,64.6c-0.7,0-1.3-0.6-1.2-1.3l0-7.7c0-0.7,0.6-1.2,1.2-1.2c0,0,0,0,0,0    c0.7,0,1.2,0.6,1.2,1.3l0,7.7C65.2,64,64.7,64.6,64,64.6z" fill="#62345B"/></g><g><path d="M55,64.6C55,64.6,55,64.6,55,64.6c-0.7,0-1.3-0.6-1.2-1.3l0-7.7c0-0.7,0.6-1.2,1.2-1.2c0,0,0,0,0,0    c0.7,0,1.2,0.6,1.2,1.3l0,7.7C56.2,64,55.7,64.6,55,64.6z" fill="#62345B"/></g><g><path d="M73,64.6C73,64.6,73,64.6,73,64.6c-0.7,0-1.3-0.6-1.2-1.3l0-7.7c0-0.7,0.6-1.2,1.2-1.2c0,0,0,0,0,0    c0.7,0,1.2,0.6,1.2,1.3l0,7.7C74.2,64,73.7,64.6,73,64.6z" fill="#62345B"/></g><g><path d="M55,46.6c-0.2,0-0.4,0-0.6-0.1c-0.6-0.3-0.9-1.1-0.5-1.7l5-9.7c0.3-0.6,1.1-0.9,1.7-0.5    c0.6,0.3,0.9,1.1,0.5,1.7l-5,9.7C55.9,46.3,55.4,46.6,55,46.6z" fill="#62345B"/></g><g><path d="M73,46.6c-0.5,0-0.9-0.2-1.1-0.7l-5-9.7c-0.3-0.6-0.1-1.4,0.5-1.7c0.6-0.3,1.4-0.1,1.7,0.5l5,9.7    c0.3,0.6,0.1,1.4-0.5,1.7C73.4,46.5,73.2,46.6,73,46.6z" fill="#62345B"/></g><g><path d="M80.8,51.9H47.2c-0.7,0-1.2-0.6-1.2-1.2s0.6-1.2,1.2-1.2h33.7c0.7,0,1.2,0.6,1.2,1.2S81.5,51.9,80.8,51.9z    " fill="#62345B"/></g><g><path d="M64,84.7c-17.6,0-31.9-14.3-31.9-31.9S46.4,20.9,64,20.9s31.9,14.3,31.9,31.9S81.6,84.7,64,84.7z M64,23.4    c-16.2,0-29.4,13.2-29.4,29.4S47.8,82.2,64,82.2S93.4,69,93.4,52.8S80.2,23.4,64,23.4z" fill="#62345B"/></g></g></svg>