<svg width="128" height="128" viewBox="0 0 128 128" fill="none" xmlns="http://www.w3.org/2000/svg">
<path d="M102.8 52.8C102.8 31.4 85.4 14 64 14C42.6 14 25.2 31.4 25.2 52.8C25.2 53.5 25.2 54.2 25.3 54.8C26.4 76.6 44.1 102.5 61.5 113.3C62.3 113.8 63.2 114 64.1 114C65 114 65.8 113.8 66.6 113.3C84 102.6 101.7 76.6 102.8 54.8C102.8 54.1 102.8 53.5 102.8 52.8Z" fill="#7DBF66"/>
<g opacity="0.2">
<path opacity="0.2" d="M64 14C62.9 14 61.7 14.1 60.6 14.2C80.4 15.9 96 32.5 96 52.8C96 53.5 96 54.1 95.9 54.8C94.9 76.2 77.7 101.7 60.6 112.7C60.9 112.9 61.2 113.1 61.5 113.3C62.3 113.8 63.2 114 64.1 114C65 114 65.8 113.8 66.6 113.3C84 102.6 101.7 76.6 102.8 54.8C102.8 54.1 102.9 53.5 102.9 52.8C102.8 31.4 85.4 14 64 14Z" fill="#62345B"/>
</g>
<path d="M64 115.2C62.9 115.2 61.7 114.9 60.8 114.3C44 104 25.1 78.3 24 54.9001C24 54.2001 23.9 53.5 23.9 52.8C23.9 30.7 41.9 12.8 63.9 12.8C85.9 12.8 103.9 30.8 103.9 52.8C103.9 53.5 103.9 54.2001 103.8 54.9001C102.7 78.3 83.8 104 67 114.4C66.3 114.9 65.2 115.2 64 115.2C64.1 115.2 64 115.2 64 115.2ZM64 15.2C43.3 15.2 26.5 32 26.5 52.7001C26.5 53.4001 26.5 54 26.6 54.7001C27.7 76.6001 45.9 102.1 62.2 112.2C62.7 112.5 63.4 112.7 64.1 112.7V113.9V112.6C64.8 112.6 65.4 112.4 65.9 112.1C82.2 102 100.4 76.5 101.5 54.6C101.5 53.9 101.6 53.3 101.6 52.6C101.5 32.1 84.7 15.2 64 15.2Z" fill="#62345B"/>
<path d="M64 83.4C80.8999 83.4 94.6 69.6999 94.6 52.7999C94.6 35.9 80.8999 22.2 64 22.2C47.1001 22.2 33.4 35.9 33.4 52.7999C33.4 69.6999 47.1001 83.4 64 83.4Z" fill="white"/>
<path d="M64.9 84.8C47.3 84.8 33 70.5 33 52.9C33 35.3 47.3 21 64.9 21C82.5 21 96.8 35.3 96.8 52.9C96.8 70.5 82.5 84.8 64.9 84.8ZM64.9 23.5C48.7 23.5 35.5 36.7 35.5 52.9C35.5 69.1 48.7 82.3 64.9 82.3C81.1 82.3 94.3 69.1 94.3 52.9C94.3 36.7 81.1 23.5 64.9 23.5Z" fill="#62345B"/>
<path d="M86.37 64.6057C86.37 65.4674 86.2054 66.2905 85.9073 67.0455H73.5675C73.2685 66.2905 73.1039 65.4674 73.1039 64.6057C73.1039 61.1313 75.7754 58.2809 79.1759 57.9962C79.3607 57.9802 79.548 57.9727 79.737 57.9727C83.4003 57.9727 86.37 60.9423 86.37 64.6057Z" fill="#84B75B"/>
<path d="M82.7192 65.4623C82.7192 66.004 82.6386 66.5348 82.479 67.0454H73.5675C73.2685 66.2904 73.1039 65.4673 73.1039 64.6057C73.1039 61.1312 75.7754 58.2808 79.1759 57.9961V60.4543C81.2378 61.185 82.7192 63.1536 82.7192 65.4623Z" fill="#69A833"/>
<path d="M57.4328 67.0451C57.7317 66.29 57.8959 65.4669 57.8959 64.6055C57.8959 60.9422 54.9263 57.9724 51.2629 57.9724C47.5996 57.9724 44.6298 60.9421 44.6298 64.6055C44.6298 65.4669 44.7941 66.29 45.0929 67.0451H57.4328Z" fill="#A0D37D"/>
<path d="M78.1683 44.2707V67.0451H51.2632V44.2707L64.7157 32.1924L78.1683 44.2707Z" fill="#EBEEF2"/>
<path d="M57.8812 67.0449L78.1683 46.7568V67.0449H57.8812Z" fill="#D3D8DF"/>
<path d="M74.5383 53.8738H72.9853C72.5089 53.8738 72.1226 54.26 72.1226 54.7365V62.0716H75.401V54.7365C75.401 54.26 75.0147 53.8738 74.5383 53.8738Z" fill="#7FB7EA"/>
<path d="M57.3089 62.0713V54.7363C57.3089 54.2599 56.9227 53.8735 56.4461 53.8735H54.8932C54.4168 53.8735 54.0304 54.2598 54.0304 54.7363V62.0713" fill="#7FB7EA"/>
<path d="M78.1686 62.0713H51.263V67.045H78.1686V62.0713Z" fill="#5F9EEB"/>
<path d="M78.1683 62.0713H51.2632V67.0449H78.1683V62.0713Z" fill="#5F9EEB"/>
<path d="M78.1683 62.0713V67.045H57.8812L62.8548 62.0713H78.1683Z" fill="#3A82D0"/>
<path d="M68.9319 54.7363V67.0449H60.4995V54.7363C60.4995 54.2599 60.8858 53.8735 61.3623 53.8735H68.0692C68.5457 53.8736 68.9319 54.2599 68.9319 54.7363Z" fill="#7B8C98"/>
<path d="M68.9319 55.9934V67.0451H60.4995V64.4266L68.9319 55.9934Z" fill="#627687"/>
<path d="M79.4511 49.411L64.7157 36.1813L49.9804 49.411C49.6258 49.7293 49.0804 49.6999 48.7621 49.3454L47.3212 47.7405C47.0029 47.386 47.0323 46.8406 47.3868 46.5222L63.4189 32.1281C64.1566 31.4658 65.2748 31.4658 66.0125 32.1281L82.0447 46.5221C82.3992 46.8404 82.4286 47.3859 82.1103 47.7405L80.6694 49.3453C80.351 49.6999 79.8056 49.7293 79.4511 49.411Z" fill="#5F9EEB"/>
<path d="M64.7157 50.4755C66.6196 50.4755 68.1629 48.9321 68.1629 47.0283C68.1629 45.1244 66.6196 43.5811 64.7157 43.5811C62.8119 43.5811 61.2685 45.1244 61.2685 47.0283C61.2685 48.9321 62.8119 50.4755 64.7157 50.4755Z" fill="#EB5777"/>
<path d="M81.4111 67.0452C81.605 66.5552 81.7116 66.0211 81.7116 65.4622C81.7116 63.0853 79.7848 61.1584 77.4078 61.1584C75.0309 61.1584 73.1041 63.0853 73.1041 65.4622C73.1041 66.0211 73.2106 66.5552 73.4046 67.0452H81.4111Z" fill="#A0D37D"/>
<path d="M79.737 57.3427C79.4228 57.3427 79.109 57.3651 78.7984 57.4053V54.6724C78.7984 54.3245 78.5165 54.0425 78.1686 54.0425C77.8206 54.0425 77.5387 54.3245 77.5387 54.6724V60.5319C77.495 60.5307 77.4517 60.5285 77.4077 60.5285C76.9299 60.5285 76.4682 60.5982 76.0308 60.7255V54.7363C76.0308 53.9133 75.3612 53.2438 74.5382 53.2438H72.9853C72.1623 53.2438 71.4927 53.9134 71.4927 54.7363V61.4415H69.5619V54.7363C69.5619 53.9133 68.8922 53.2438 68.0693 53.2438H61.3624C60.5393 53.2438 59.8698 53.9134 59.8698 54.7363V61.4415H57.9389V54.7363C57.9389 53.9133 57.2693 53.2438 56.4464 53.2438H54.8935C54.0705 53.2438 53.4009 53.9134 53.4009 54.7363V61.4415H51.8928V48.5405L64.7157 37.0277L77.5387 48.5405V51.9294C77.5387 52.2773 77.8206 52.5593 78.1686 52.5593C78.5165 52.5593 78.7984 52.2773 78.7984 51.9294V49.6716L79.0303 49.8798C79.6428 50.4295 80.5883 50.3785 81.1382 49.7662L82.5791 48.1613C83.1288 47.5489 83.0779 46.6035 82.4655 46.0536L75.58 39.8716C75.3211 39.6391 74.9228 39.6607 74.6904 39.9195C74.4581 40.1784 74.4795 40.5766 74.7383 40.809L81.6238 46.991C81.7194 47.0767 81.7272 47.2243 81.6416 47.3198L80.2006 48.9247C80.1149 49.0202 79.9673 49.0281 79.8718 48.9424L65.1366 35.7126C64.897 35.4976 64.5344 35.4976 64.295 35.7126L49.5596 48.9422C49.4972 48.9983 49.4271 49.0034 49.3915 49.0015C49.3555 48.9995 49.2868 48.9869 49.2308 48.9244L47.7899 47.3197C47.7041 47.2241 47.712 47.0765 47.8076 46.9908L63.8398 32.5967C64.339 32.1483 65.0925 32.1483 65.5918 32.5967L72.6963 38.9753C72.9552 39.2078 73.3534 39.1862 73.5859 38.9275C73.8183 38.6685 73.7968 38.2704 73.538 38.038L66.4334 31.6594C65.4541 30.7802 63.9773 30.7802 62.9982 31.6594L46.9659 46.0534C46.3536 46.6033 46.3028 47.5488 46.8524 48.1612L48.2933 49.7661C48.5597 50.0628 48.9255 50.238 49.3238 50.2594C49.3512 50.2609 49.3785 50.2616 49.4059 50.2616C49.7743 50.2616 50.1251 50.1275 50.4013 49.8795L50.6331 49.6714V57.3699C49.273 57.4857 47.9895 57.9764 46.8894 58.8075C46.6117 59.0172 46.5567 59.4121 46.7664 59.6897C46.8903 59.8536 47.0788 59.94 47.2695 59.94C47.4017 59.94 47.5351 59.8985 47.6487 59.8127C48.5281 59.1483 49.5497 58.748 50.6331 58.6359V66.4152H45.5372C45.3529 65.8326 45.2598 65.2256 45.2598 64.6056C45.2598 63.5836 45.5222 62.5735 46.0186 61.6843C46.1883 61.3806 46.0796 60.9969 45.7758 60.8273C45.472 60.6577 45.0883 60.7664 44.9188 61.0702C44.3177 62.1467 44 63.3691 44 64.6056C44 65.5276 44.1707 66.4264 44.5073 67.277C44.6024 67.5173 44.8346 67.6751 45.0931 67.6751H85.9069C86.1654 67.6751 86.3976 67.5173 86.4927 67.277C86.8293 66.4264 87 65.5276 87 64.6056C86.9999 60.6008 83.7418 57.3427 79.737 57.3427ZM72.7524 54.7364C72.7524 54.608 72.8569 54.5036 72.9852 54.5036H74.5381C74.6665 54.5036 74.771 54.6081 74.771 54.7364V61.2954C74.6972 61.3423 74.6248 61.391 74.5538 61.4415H72.7523V54.7364H72.7524ZM73.321 62.7013C72.7866 63.4897 72.4741 64.4402 72.4741 65.4623C72.4741 65.7849 72.5055 66.1032 72.5666 66.4153H69.5619V62.7013H73.321ZM61.3622 54.5036H68.0691C68.1974 54.5036 68.3019 54.6081 68.3019 54.7364V66.4153H61.1294V54.7364C61.1294 54.608 61.2339 54.5036 61.3622 54.5036ZM54.6605 54.7364C54.6605 54.608 54.7649 54.5036 54.8933 54.5036H56.4461C56.5745 54.5036 56.6789 54.6081 56.6789 54.7364V61.4415H54.6604V54.7364H54.6605ZM51.8928 66.4153V62.7013H59.8696V66.4153H57.4327H51.8928ZM78.1686 66.4153H73.8585C73.7758 66.1064 73.7339 65.7873 73.7339 65.4623C73.7339 63.4364 75.382 61.7883 77.4078 61.7883C79.4336 61.7883 81.0817 63.4364 81.0817 65.4623C81.0817 65.7874 81.04 66.1064 80.9572 66.4153H78.1686ZM85.4628 66.4153H82.2489C82.3101 66.1033 82.3414 65.7849 82.3414 65.4623C82.3414 63.2247 80.8436 61.3315 78.7984 60.7294V58.676C79.1075 58.6276 79.422 58.6024 79.737 58.6024C83.0471 58.6024 85.7401 61.2954 85.7401 64.6056C85.7402 65.2256 85.647 65.8326 85.4628 66.4153Z" fill="black"/>
<path d="M66.8726 61.8038C67.2206 61.8038 67.5025 61.5218 67.5025 61.1739V60.4595C67.5025 60.1116 67.2206 59.8296 66.8726 59.8296C66.5247 59.8296 66.2427 60.1116 66.2427 60.4595V61.1739C66.2427 61.5219 66.5247 61.8038 66.8726 61.8038Z" fill="black"/>
<path d="M60.6386 47.0283C60.6386 49.2764 62.4675 51.1054 64.7157 51.1054C66.9639 51.1054 68.7928 49.2764 68.7928 47.0283C68.7928 44.7802 66.9639 42.9512 64.7157 42.9512C62.4675 42.9512 60.6386 44.7802 60.6386 47.0283ZM67.533 47.0283C67.533 48.5818 66.2692 49.8456 64.7157 49.8456C63.1623 49.8456 61.8984 48.5817 61.8984 47.0283C61.8984 45.4748 63.1623 44.2109 64.7157 44.2109C66.2692 44.2109 67.533 45.4748 67.533 47.0283Z" fill="black"/>
</svg>
