<?xml version="1.0" encoding="iso-8859-1"?>
<!-- Generator: Adobe Illustrator 21.0.0, SVG Export Plug-In . SVG Version: 6.00 Build 0)  -->
<svg version="1.1" id="Capa_1" xmlns="http://www.w3.org/2000/svg" xmlns:xlink="http://www.w3.org/1999/xlink" x="0px" y="0px"
	 viewBox="0 0 512 512" style="enable-background:new 0 0 512 512;" xml:space="preserve">
<g id="XMLID_1407_">
	<g id="XMLID_1408_">
		<g id="XMLID_1409_">
			<path id="XMLID_1410_" style="fill:#84B75B;" d="M504.5,437.798c0,10.26-1.96,20.06-5.51,29.05H352.06
				c-3.56-8.99-5.52-18.79-5.52-29.05c0-41.37,31.81-75.31,72.3-78.7c2.2-0.19,4.43-0.28,6.68-0.28
				C469.14,358.818,504.5,394.178,504.5,437.798z"/>
			<path id="XMLID_1411_" style="fill:#69A833;" d="M461.03,447.998c0,6.45-0.96,12.77-2.86,18.85H352.06
				c-3.56-8.99-5.52-18.79-5.52-29.05c0-41.37,31.81-75.31,72.3-78.7v29.27C443.39,397.068,461.03,420.508,461.03,447.998z"/>
		</g>
		<g id="XMLID_1412_">
			<path id="XMLID_1413_" style="fill:#A0D37D;" d="M159.945,466.845c3.558-8.991,5.514-18.791,5.514-29.048
				c0-43.619-35.36-78.98-78.98-78.98c-43.619,0-78.98,35.36-78.98,78.98c0,10.257,1.956,20.057,5.514,29.048H159.945z"/>
		</g>
		<g id="XMLID_1414_">
			<polygon id="XMLID_1415_" style="fill:#EBEEF2;" points="406.842,195.668 406.842,466.843 86.482,466.843 86.482,195.668 
				246.662,51.852 			"/>
			<polygon id="XMLID_1416_" style="fill:#D3D8DF;" points="165.283,466.843 406.842,225.273 406.842,466.843 			"/>
			<g id="XMLID_1417_">
				<g id="XMLID_1418_">
					<path style="fill:#7FB7EA;" d="M363.619,310.012h-18.491c-5.673,0-10.273,4.599-10.273,10.273v87.338h39.036v-87.338
						C373.891,314.611,369.292,310.012,363.619,310.012z"/>
					<path id="XMLID_1419_" style="fill:#7FB7EA;" d="M158.469,407.622v-87.338c0-5.673-4.599-10.273-10.273-10.273h-18.491
						c-5.673,0-10.273,4.599-10.273,10.273v87.338"/>
				</g>
			</g>
			<rect x="86.48" y="407.622" style="fill:#5F9EEB;" width="320.365" height="59.222"/>
			<rect id="XMLID_1420_" x="86.482" y="407.621" style="fill:#5F9EEB;" width="320.36" height="59.221"/>
			<polygon id="XMLID_1421_" style="fill:#3A82D0;" points="406.842,407.621 406.842,466.843 165.283,466.843 224.504,407.621 			
				"/>
			<path id="XMLID_1422_" style="fill:#7B8C98;" d="M296.864,320.284v146.559H196.46V320.284c0-5.673,4.599-10.273,10.273-10.273
				h79.859C292.265,310.012,296.864,314.611,296.864,320.284z"/>
			<polygon id="XMLID_1423_" style="fill:#627687;" points="296.864,335.251 296.864,466.843 196.46,466.843 196.46,435.665 			"/>
			<g id="XMLID_1424_">
				<path id="XMLID_1425_" style="fill:#5F9EEB;" d="M422.116,256.874L246.662,99.348L71.209,256.874
					c-4.222,3.79-10.716,3.44-14.507-0.781l-17.156-19.109c-3.79-4.222-3.44-10.716,0.781-14.507L231.221,51.087
					c8.784-7.887,22.098-7.887,30.882,0l190.895,171.389c4.222,3.79,4.571,10.285,0.781,14.507l-17.156,19.109
					C432.832,260.314,426.337,260.664,422.116,256.874z"/>
			</g>
			<circle style="fill:#EB5777;" cx="246.662" cy="228.503" r="41.046"/>
		</g>
		<g id="XMLID_1426_">
			<path id="XMLID_1427_" style="fill:#A0D37D;" d="M445.454,466.845c2.309-5.834,3.578-12.193,3.578-18.848
				c0-28.302-22.943-51.245-51.245-51.245c-28.302,0-51.245,22.943-51.245,51.245c0,6.655,1.269,13.014,3.578,18.848H445.454z"/>
		</g>
	</g>
	<g id="XMLID_1428_">
		<path id="XMLID_1429_" d="M425.521,351.317c-3.742,0-7.478,0.267-11.176,0.745v-32.54c0-4.142-3.357-7.5-7.5-7.5
			s-7.5,3.358-7.5,7.5v69.769c-0.52-0.014-1.036-0.04-1.559-0.04c-5.69,0-11.187,0.829-16.395,2.345v-71.313
			c0-9.8-7.973-17.772-17.773-17.772h-18.49c-9.8,0-17.772,7.973-17.772,17.772v79.838h-22.991v-79.838
			c0-9.8-7.973-17.772-17.772-17.772h-79.859c-9.8,0-17.772,7.973-17.772,17.772v79.838h-22.991v-79.838
			c0-9.8-7.973-17.772-17.772-17.772h-18.49c-9.8,0-17.772,7.973-17.772,17.772v79.838H93.979V246.509l152.683-137.082
			l152.683,137.082v40.352c0,4.142,3.357,7.5,7.5,7.5s7.5-3.358,7.5-7.5v-26.884l2.761,2.479c7.293,6.546,18.551,5.939,25.098-1.352
			l17.157-19.11c6.545-7.292,5.939-18.549-1.352-25.096l-81.986-73.609c-3.083-2.769-7.825-2.511-10.592,0.57
			c-2.767,3.083-2.512,7.824,0.57,10.591l81.986,73.609c1.138,1.021,1.231,2.778,0.211,3.915l-17.157,19.11
			c-1.021,1.137-2.778,1.231-3.915,0.211L251.673,93.767c-2.852-2.56-7.17-2.56-10.021,0L66.198,251.292
			c-0.743,0.668-1.578,0.729-2.001,0.706c-0.429-0.023-1.247-0.173-1.914-0.917l-17.157-19.108
			c-1.021-1.138-0.927-2.895,0.211-3.916l190.895-171.39c5.945-5.339,14.916-5.339,20.861,0l84.594,75.95
			c3.082,2.768,7.824,2.511,10.592-0.57c2.767-3.083,2.512-7.824-0.57-10.591l-84.594-75.95c-11.661-10.469-29.245-10.468-40.904,0
			L35.315,216.896c-7.291,6.547-7.896,17.805-1.352,25.097l17.157,19.109c3.172,3.533,7.528,5.619,12.27,5.874
			c0.327,0.018,0.652,0.026,0.978,0.026c4.386,0,8.563-1.596,11.852-4.549l2.76-2.478v91.666
			c-16.194,1.379-31.477,7.222-44.576,17.117c-3.306,2.497-3.961,7.2-1.464,10.505c1.475,1.952,3.719,2.98,5.99,2.98
			c1.574,0,3.162-0.494,4.515-1.516c10.471-7.91,22.635-12.677,35.535-14.012v92.628H18.303C16.109,452.406,15,445.179,15,437.796
			c0-12.168,3.125-24.196,9.036-34.783c2.02-3.616,0.726-8.185-2.892-10.205c-3.617-2.019-8.186-0.725-10.204,2.892
			C3.783,408.518,0,423.074,0,437.796c0,10.979,2.032,21.681,6.041,31.809c1.132,2.861,3.896,4.74,6.974,4.74h485.971
			c3.077,0,5.842-1.879,6.974-4.74c4.009-10.128,6.041-20.83,6.041-31.809C512,390.111,473.205,351.317,425.521,351.317z
			 M342.355,320.284c0-1.529,1.244-2.772,2.772-2.772h18.49c1.529,0,2.773,1.244,2.773,2.772v78.098
			c-0.878,0.558-1.74,1.138-2.586,1.74h-21.45V320.284z M349.125,415.122c-6.363,9.388-10.084,20.705-10.084,32.875
			c0,3.841,0.374,7.632,1.102,11.348h-35.778v-44.223H349.125z M206.732,317.512h79.859c1.528,0,2.772,1.244,2.772,2.772v139.061
			H203.96V320.284C203.96,318.755,205.204,317.512,206.732,317.512z M126.934,320.284c0-1.529,1.244-2.772,2.772-2.772h18.49
			c1.528,0,2.772,1.244,2.772,2.772v79.838h-24.035V320.284z M93.979,459.345v-44.223h94.98v44.223h-29.016H93.979z
			 M406.845,459.345h-51.32c-0.985-3.679-1.483-7.478-1.483-11.348c0-24.122,19.624-43.746,43.745-43.746
			s43.745,19.624,43.745,43.746c0,3.871-0.497,7.67-1.483,11.348H406.845z M493.697,459.345H455.43
			c0.728-3.715,1.101-7.506,1.101-11.348c0-26.643-17.834-49.185-42.187-56.354v-24.45c3.681-0.577,7.426-0.876,11.176-0.876
			c39.414,0,71.479,32.065,71.479,71.479C497,445.179,495.891,452.406,493.697,459.345z"/>
		<path id="XMLID_1438_" d="M272.344,404.434c4.143,0,7.5-3.358,7.5-7.5v-8.507c0-4.142-3.357-7.5-7.5-7.5s-7.5,3.358-7.5,7.5v8.507
			C264.844,401.077,268.201,404.434,272.344,404.434z"/>
		<path id="XMLID_1439_" d="M198.116,228.503c0,26.769,21.777,48.546,48.546,48.546s48.546-21.778,48.546-48.546
			c0-26.768-21.777-48.546-48.546-48.546S198.116,201.735,198.116,228.503z M280.208,228.503c0,18.498-15.049,33.546-33.546,33.546
			s-33.546-15.049-33.546-33.546c0-18.497,15.049-33.546,33.546-33.546S280.208,210.006,280.208,228.503z"/>
	</g>
</g>
<g>
</g>
<g>
</g>
<g>
</g>
<g>
</g>
<g>
</g>
<g>
</g>
<g>
</g>
<g>
</g>
<g>
</g>
<g>
</g>
<g>
</g>
<g>
</g>
<g>
</g>
<g>
</g>
<g>
</g>
</svg>
