<svg
   enable-background="new 0 0 128 128"
   id="Слой_1"
   version="1.1"
   viewBox="0 0 128 128"
   xml:space="preserve"
   sodipodi:docname="market_icon.svg"
   inkscape:version="1.1 (c68e22c387, 2021-05-23)"
   xmlns:inkscape="http://www.inkscape.org/namespaces/inkscape"
   xmlns:sodipodi="http://sodipodi.sourceforge.net/DTD/sodipodi-0.dtd"
   xmlns="http://www.w3.org/2000/svg"
   xmlns:svg="http://www.w3.org/2000/svg"><defs
     id="defs230" /><sodipodi:namedview
     id="namedview228"
     pagecolor="#ffffff"
     bordercolor="#666666"
     borderopacity="1.0"
     inkscape:pageshadow="2"
     inkscape:pageopacity="0.0"
     inkscape:pagecheckerboard="0"
     showgrid="false"
     inkscape:zoom="13.335938"
     inkscape:cx="48.815466"
     inkscape:cy="77.534856"
     inkscape:window-width="1920"
     inkscape:window-height="1011"
     inkscape:window-x="0"
     inkscape:window-y="32"
     inkscape:window-maximized="1"
     inkscape:current-layer="Слой_1" /><g
     id="g225"><g
       id="g175"><path
         d="M102.8,52.8C102.8,31.4,85.4,14,64,14S25.2,31.4,25.2,52.8c0,0.7,0,1.4,0.1,2    c1.1,21.8,18.8,47.7,36.2,58.5c0.8,0.5,1.7,0.7,2.6,0.7l0,0c0.9,0,1.7-0.2,2.5-0.7c17.4-10.7,35.1-36.7,36.2-58.5    C102.8,54.1,102.8,53.5,102.8,52.8z"
         fill="#4FC2BD"
         id="path173" /></g><g
       opacity="0.2"
       id="g179"><path
         d="M64,14c-1.1,0-2.3,0.1-3.4,0.2C80.4,15.9,96,32.5,96,52.8c0,0.7,0,1.3-0.1,2c-1,21.4-18.2,46.9-35.3,57.9    c0.3,0.2,0.6,0.4,0.9,0.6c0.8,0.5,1.7,0.7,2.6,0.7c0.9,0,1.7-0.2,2.5-0.7c17.4-10.7,35.1-36.7,36.2-58.5c0-0.7,0.1-1.3,0.1-2    C102.8,31.4,85.4,14,64,14z"
         fill="#62345B"
         id="path177" /></g><g
       id="g183"><path
         d="M64,115.2c-1.1,0-2.3-0.3-3.2-0.9C44,104,25.1,78.3,24,54.9c0-0.7-0.1-1.4-0.1-2.1c0-22.1,18-40,40-40    s40,18,40,40c0,0.7,0,1.4-0.1,2.1c-1.1,23.4-20,49.1-36.8,59.5C66.3,114.9,65.2,115.2,64,115.2C64.1,115.2,64,115.2,64,115.2z     M64,15.2c-20.7,0-37.5,16.8-37.5,37.5c0,0.7,0,1.3,0.1,2c1.1,21.9,19.3,47.4,35.6,57.5c0.5,0.3,1.2,0.5,1.9,0.5v1.2l0-1.3    c0.7,0,1.3-0.2,1.8-0.5c16.3-10.1,34.5-35.6,35.6-57.5c0-0.7,0.1-1.3,0.1-2C101.5,32.1,84.7,15.2,64,15.2z"
         fill="#62345B"
         id="path181" /></g><g
       id="g187"><circle
         cx="64"
         cy="52.8"
         fill="#FFFFFF"
         r="30.6"
         id="circle185" /></g><g
       id="g191"><path
         d="M75.9,68.3H52.1c-2.8,0-5-2.2-5-5l0-12.7h-1c-1.1,0-2-0.9-2-2v-1c-0.2-1.2,0.7-2.3,2-2.3h35.7    c1.2,0,2.2,1.1,2,2.3v1c0,1.1-0.9,2-2,2h-1l0,12.7C80.9,66.1,78.6,68.3,75.9,68.3z"
         fill="#EE7F8F"
         id="path189" /></g><g
       id="g195"><path
         d="M75.9,69.6H52.1c-1.7,0-3.2-0.7-4.4-1.8c-1.2-1.2-1.8-2.8-1.8-4.4l0-11.4c-1.7-0.1-3-1.5-3-3.2v-0.9    c-0.1-0.9,0.2-1.8,0.8-2.5c0.6-0.7,1.5-1.1,2.5-1.1h35.7c1,0,1.9,0.4,2.5,1.1c0.6,0.7,0.9,1.6,0.8,2.5v0.9c0,1.7-1.3,3.1-3,3.2    l0,11.4c0,1.7-0.6,3.2-1.8,4.4C79.1,68.9,77.5,69.6,75.9,69.6z M46.1,46.6c-0.3,0-0.5,0.2-0.6,0.3c-0.1,0.1-0.2,0.3-0.2,0.6    c0,0.1,0,0.1,0,0.2v1c0,0.4,0.3,0.8,0.8,0.8h1c0.3,0,0.6,0.1,0.9,0.4c0.2,0.2,0.4,0.6,0.4,0.9l0,12.7c0,1,0.4,1.9,1.1,2.7    c0.7,0.7,1.7,1.1,2.7,1.1h23.7c1,0,1.9-0.4,2.7-1.1s1.1-1.7,1.1-2.7l0-12.7c0-0.3,0.1-0.7,0.4-0.9c0.2-0.2,0.6-0.4,0.9-0.4h1    c0.4,0,0.8-0.3,0.8-0.8v-1c0-0.1,0-0.1,0-0.2c0-0.3-0.1-0.5-0.2-0.6c-0.1-0.1-0.3-0.3-0.6-0.3H46.1z"
         fill="#62345B"
         id="path193" /></g><g
       id="g199"><path
         d="M64,64.6C64,64.6,64,64.6,64,64.6c-0.7,0-1.3-0.6-1.2-1.3l0-7.7c0-0.7,0.6-1.2,1.2-1.2c0,0,0,0,0,0    c0.7,0,1.2,0.6,1.2,1.3l0,7.7C65.2,64,64.7,64.6,64,64.6z"
         fill="#62345B"
         id="path197" /></g><g
       id="g203"><path
         d="M55,64.6C55,64.6,55,64.6,55,64.6c-0.7,0-1.3-0.6-1.2-1.3l0-7.7c0-0.7,0.6-1.2,1.2-1.2c0,0,0,0,0,0    c0.7,0,1.2,0.6,1.2,1.3l0,7.7C56.2,64,55.7,64.6,55,64.6z"
         fill="#62345B"
         id="path201" /></g><g
       id="g207"><path
         d="M73,64.6C73,64.6,73,64.6,73,64.6c-0.7,0-1.3-0.6-1.2-1.3l0-7.7c0-0.7,0.6-1.2,1.2-1.2c0,0,0,0,0,0    c0.7,0,1.2,0.6,1.2,1.3l0,7.7C74.2,64,73.7,64.6,73,64.6z"
         fill="#62345B"
         id="path205" /></g><g
       id="g211"><path
         d="M55,46.6c-0.2,0-0.4,0-0.6-0.1c-0.6-0.3-0.9-1.1-0.5-1.7l5-9.7c0.3-0.6,1.1-0.9,1.7-0.5    c0.6,0.3,0.9,1.1,0.5,1.7l-5,9.7C55.9,46.3,55.4,46.6,55,46.6z"
         fill="#62345B"
         id="path209" /></g><g
       id="g215"><path
         d="M73,46.6c-0.5,0-0.9-0.2-1.1-0.7l-5-9.7c-0.3-0.6-0.1-1.4,0.5-1.7c0.6-0.3,1.4-0.1,1.7,0.5l5,9.7    c0.3,0.6,0.1,1.4-0.5,1.7C73.4,46.5,73.2,46.6,73,46.6z"
         fill="#62345B"
         id="path213" /></g><g
       id="g219"><path
         d="M80.8,51.9H47.2c-0.7,0-1.2-0.6-1.2-1.2s0.6-1.2,1.2-1.2h33.7c0.7,0,1.2,0.6,1.2,1.2S81.5,51.9,80.8,51.9z    "
         fill="#62345B"
         id="path217" /></g><g
       id="g223"><path
         d="M64,84.7c-17.6,0-31.9-14.3-31.9-31.9S46.4,20.9,64,20.9s31.9,14.3,31.9,31.9S81.6,84.7,64,84.7z M64,23.4    c-16.2,0-29.4,13.2-29.4,29.4S47.8,82.2,64,82.2S93.4,69,93.4,52.8S80.2,23.4,64,23.4z"
         fill="#62345B"
         id="path221" /></g></g><path
     style="fill:#c83737;stroke-width:0.160804"
     d="M 60.536185,110.99933 C 50.357421,104.06448 40.197608,91.910226 33.708389,78.905052 27.115788,65.692687 25.089852,53.402671 27.818649,43.175879 29.82842,35.643801 34.350898,28.620757 40.3352,23.738682 c 4.483796,-3.657941 10.339278,-6.460183 15.946207,-7.631331 2.83398,-0.591947 4.580019,-0.759976 7.882904,-0.758602 l 2.956258,0.0012 1.8166,0.586344 c 11.797255,3.807804 21.064809,12.910245 24.950413,24.50589 0.927432,2.767695 1.148313,4.089652 0.29555,1.768844 -2.497449,-6.796846 -6.826591,-12.312674 -12.655494,-16.124563 -11.310036,-7.39635 -25.837059,-6.937445 -36.740864,1.160632 -1.517844,1.127278 -4.257888,3.754122 -5.499805,5.27259 -3.895044,4.762396 -6.360253,10.616169 -7.057178,16.75765 -0.267777,2.359721 -0.110955,6.998286 0.313038,9.259194 1.386569,7.393756 5.174552,13.906666 10.874256,18.69677 12.456345,10.468471 30.65925,9.946822 42.55367,-1.219476 3.917624,-3.677809 6.911635,-8.492995 8.61986,-13.863098 0.47507,-1.493464 0.526209,-1.588998 0.44284,-0.827287 -0.282336,2.579639 -2.414662,9.508147 -4.258166,13.835949 -5.408784,12.697637 -14.915901,25.520382 -24.926043,33.619062 -1.346084,1.08905 -3.470413,2.67343 -3.946227,2.9432 -0.09203,0.0522 -0.70711,-0.27288 -1.366834,-0.72235 z"
     id="path404" /><path
     style="fill:#d35f5f;stroke-width:0.160804"
     d="m 62.894439,112.40889 c -0.342731,-0.12322 -0.68998,-0.29086 -0.771662,-0.37255 -0.09082,-0.0908 0.432405,-0.57901 1.346766,-1.25661 9.31287,-6.90146 18.390053,-17.774907 24.419713,-29.252092 5.839995,-11.116166 8.789787,-22.711538 8.046263,-31.62915 -0.576276,-6.9117 -2.651544,-12.949485 -6.37303,-18.541704 -1.581504,-2.376503 -2.650005,-3.687502 -4.702334,-5.76954 -4.142278,-4.20224 -8.565674,-7.054593 -14.363507,-9.262069 -1.987232,-0.756622 -1.640076,-0.824902 1.179184,-0.231926 13.882028,2.91981 25.161389,13.735347 28.663318,27.48464 0.84392,3.313393 1.1152,5.516932 1.09874,8.924624 -0.0346,7.170248 -1.799725,14.698492 -5.316015,22.673366 -6.089529,13.810935 -16.95794,27.583571 -27.746698,35.161091 -2.999715,2.10686 -4.161721,2.54614 -5.480738,2.07192 z"
     id="path480" /><path
     style="fill:#c83737;stroke-width:0.160804"
     d="m 61.668342,111.55197 c -0.711775,-0.24563 -3.980987,-2.6775 -6.456709,-4.80295 C 45.084935,98.055063 35.786052,84.885789 30.873895,72.281407 28.063264,65.069448 26.773869,58.885536 26.773869,52.617762 c 0,-4.501272 0.527804,-7.817703 1.865887,-11.724211 2.738529,-7.995091 7.893634,-14.707339 14.799754,-19.270148 3.325943,-2.19742 7.557113,-4.077152 11.394661,-5.062172 2.881064,-0.73951 4.923864,-1.006217 8.699914,-1.135855 l 3.232577,-0.11098 1.832749,0.608961 c 1.008012,0.334929 2.591549,0.926042 3.518971,1.313586 8.590476,3.589724 15.857742,10.472619 19.888208,18.836305 0.809328,1.67945 2.022532,4.814263 1.948787,5.035496 -0.0264,0.07921 -0.351047,-0.547937 -0.72143,-1.39365 C 90.773739,34.097606 86.263058,28.930439 80.91985,25.608799 77.438706,23.444722 73.298401,21.897379 68.904523,21.11835 c -1.634449,-0.289785 -8.182503,-0.288864 -9.809046,0.0014 -8.681019,1.549063 -15.976173,5.985928 -20.930044,12.729516 -2.701599,3.677624 -4.690486,8.223344 -5.631635,12.871442 -0.335174,1.655343 -0.372624,2.274205 -0.369345,6.103433 0.0042,4.940539 0.209613,6.359545 1.464763,10.120149 2.738266,8.204229 8.585738,14.858756 16.403292,18.667239 14.29207,6.962674 31.810763,2.209381 40.609845,-11.018544 1.151916,-1.731708 3.001117,-5.420253 3.668071,-7.316583 0.762819,-2.168901 0.44449,-0.461123 -0.576082,3.090573 -2.782807,9.684457 -7.381096,18.69299 -14.140845,27.703397 -5.444728,7.257548 -11.153008,12.942338 -17.523145,17.451038 -0.08844,0.0626 -0.269347,0.0764 -0.40201,0.0306 z"
     id="path556" /><path
     style="fill:#c83737;stroke-width:0.160804"
     d="m 62.753769,112.27346 c -0.718901,-0.28407 -0.930572,-0.0602 3.015075,-3.18873 2.475762,-1.96304 8.672583,-8.09011 10.875489,-10.753072 C 86.811629,86.041013 93.207614,73.055649 95.443575,60.164747 96.98607,51.271862 95.660583,42.265754 91.71255,34.81407 89.333781,30.324281 86.335228,26.570739 82.492462,23.272506 79.29806,20.530763 74.946605,17.934422 71.091697,16.470121 c -0.780112,-0.296329 -1.345139,-0.563195 -1.255616,-0.593036 0.296536,-0.09884 3.942991,0.779558 5.82221,1.402525 13.201752,4.376426 23.10484,16.013693 25.321409,29.755566 1.42909,8.859835 -0.9628,20.308922 -6.58537,31.521621 -6.601233,13.164393 -16.922588,25.575433 -26.72719,32.138453 -2.530336,1.69376 -3.683542,2.06418 -4.913371,1.57821 z"
     id="path632" /><path
     style="fill:#d35f5f;stroke-width:0.160804"
     d="M 60.260594,110.67337 C 48.527947,102.64385 36.676191,87.159982 30.874385,72.281407 27.844045,64.510183 26.638371,58.300974 26.818149,51.391826 c 0.142722,-5.48506 1.121254,-9.622057 3.416922,-14.445925 2.445966,-5.139688 6.260086,-10.044061 10.287542,-13.228202 4.18943,-3.312199 9.309755,-5.872608 14.311558,-7.156468 2.881048,-0.739506 4.923862,-1.006217 8.699816,-1.135851 l 3.232479,-0.110977 1.591641,0.52568 c 6.927143,2.287861 12.081358,5.485976 16.832841,10.444534 3.640581,3.799238 6.375458,8.155309 8.231704,13.111326 0.719176,1.920137 0.681882,2.292464 -0.06043,0.603293 C 89.37585,30.928003 81.503459,24.251371 71.888215,21.786972 c -3.09261,-0.79264 -3.925794,-0.88306 -8.049021,-0.873513 -3.572232,0.0083 -4.014789,0.04173 -5.949749,0.449778 -6.625453,1.397199 -11.869465,4.212986 -16.614359,8.921127 -4.417171,4.382957 -7.312642,9.822503 -8.745266,16.429204 -0.331314,1.527894 -0.365593,2.101282 -0.360504,6.030151 0.0045,3.488244 0.06168,4.626196 0.290788,5.788944 1.318175,6.689869 4.323591,12.351626 9.035237,17.021045 8.383478,8.308343 20.840173,11.334655 32.072496,7.79191 9.669209,-3.049731 17.173934,-10.282404 20.657272,-19.908432 0.71067,-1.963901 0.714099,-1.54387 0.0096,1.180949 -2.223569,8.600663 -5.953239,16.705279 -11.555626,25.110508 -5.603156,8.406384 -12.335513,15.668337 -19.342752,20.864317 -0.805086,0.59699 -1.496069,1.08543 -1.535518,1.08543 -0.03945,0 -0.732565,-0.45226 -1.540258,-1.00502 z"
     id="path671" /><path
     style="fill:#d35f5f;stroke-width:0.0568528"
     d="m 95.892927,51.394937 c -0.05463,-2.210613 -0.566885,-5.265135 -1.292902,-7.709417 -0.218097,-0.734265 -0.240765,-0.880614 -0.08055,-0.520027 0.115547,0.260055 0.225726,0.317869 0.225726,0.118444 0,-0.06775 0.01074,-0.112443 0.02386,-0.09932 0.04974,0.04974 0.543602,2.391987 0.682242,3.235697 0.284022,1.728458 0.521525,4.260725 0.474571,5.059899 l -0.02171,0.369544 z"
     id="path747" /><path
     style="fill:#d35f5f;stroke-width:0.0568528"
     d="M 88.515863,80.517787 C 91.85735,73.99353 94.232462,67.092247 95.398155,60.520144 96.663704,53.385057 96.182896,46.446078 93.976017,39.995949 91.824413,33.707377 87.780084,27.778579 82.625883,23.35718 79.336525,20.535489 75.193111,18.043609 71.203106,16.487439 c -0.843824,-0.329106 -1.386167,-0.590274 -1.2344,-0.594432 0.176259,-0.0048 1.310309,0.228949 2.37649,0.489903 3.222012,0.788604 5.416325,1.580986 8.158378,2.946046 1.537094,0.765203 2.562836,1.355706 3.968399,2.284542 5.956029,3.935914 10.816986,9.679259 13.731119,16.223664 1.598487,3.589799 2.574358,7.216793 3.005358,11.169957 0.1443,1.323498 0.14457,5.293946 4.5e-4,6.850763 -0.73313,7.920903 -3.296062,16.01196 -7.730255,24.404068 l -0.863641,1.634518 h -2.402639 -2.40264 l 0.706111,-1.378681 z"
     id="path786" /><path
     style="fill:#c83737;stroke-width:0.0568528"
     d="m 87.866013,81.870213 c 0,-0.01512 0.340826,-0.699773 0.757392,-1.521438 3.117809,-6.149785 5.305518,-12.346192 6.549202,-18.549774 1.52058,-7.584757 1.191681,-14.534129 -1.007673,-21.291376 C 91.769572,33.148167 86.882633,26.382068 80.57912,21.697697 79.09326,20.593501 77.467705,19.551129 75.751511,18.602037 74.316557,17.808477 73.03729,17.2067 71.070459,16.400033 c -0.560394,-0.229837 -0.989907,-0.42755 -0.954472,-0.439362 0.146666,-0.04889 2.727176,0.54674 4.162205,0.960713 3.407212,0.982903 6.910033,2.584715 9.86163,4.509645 7.404743,4.829119 12.912785,12.063463 15.556397,20.432003 0.794741,2.515812 1.380431,5.534243 1.536121,7.916677 0.075,1.146935 0.0349,5.317564 -0.0601,6.248732 -0.66814,6.553245 -2.462767,12.995027 -5.472267,19.642645 -0.535285,1.182379 -1.942796,4.022688 -2.676465,5.401016 l -0.42367,0.795939 -2.366923,0.01484 c -1.301807,0.0082 -2.366922,0.0025 -2.366922,-0.01267 z"
     id="path825" /></svg>
